<svg width="318" height="315" viewBox="0 0 318 315" fill="none" xmlns="http://www.w3.org/2000/svg"><path d="M126.465 308.101l-7.155-1.735c3.742-2.065 6.96-5.293 8.319-9.873l-2.445-.592c-1.462 4.765-4.028 7.519-8.156 9.912l-.461 1.902 9.436 2.288.462-1.902zm-13.442-14.231c1.699.563 2.131 1.865 1.834 3.415l2.034.674c.591-2.258-.321-4.72-3.293-5.704-2.548-.844-5.246-.05-6.195 2.817-.955 2.883.581 5.061 2.775 5.788 1.15.381 2.134.373 2.917.083l-1.473 3.085-5.945-1.969-.615 1.857 7.678 2.544 3.211-6.849-1.946-.762c-.517.673-1.56.975-2.763.577-1.274-.422-2.284-1.758-1.651-3.669.568-1.716 2.017-2.355 3.432-1.887zm-21.6-10.982l-4.456 8.983 6.478 3.213 1.765-3.139c1.874-3.315 2.947-3.76 3.682-3.396l.2.1.779-1.57-.367-.182c-2.07-1.027-3.926.196-6.04 3.828l-1.094 1.871-2.638-1.309 3.678-7.413-1.987-.986zm-13.326-2.934c-1.923 2.756-1.581 5.914 1.043 7.517 2.433 1.486 5.316.736 6.89-1.84 1.506-2.466 1.205-5.511-1.547-7.192-2.195-1.341-4.354-.738-5.571.397l1.86 1.136c.83-.607 1.827-.522 2.829.09 1.081.661 1.719 2.12.874 3.789l-6.377-3.897zm1.947 6.038c-1.114-.68-1.636-2.113-.867-3.478l4.453 2.72c-1.156 1.5-2.696 1.302-3.586.758zm-13.79-9.882l-1.037 1.412 7.301 5.362 1.037-1.412-2.764-2.03 4.898-6.67-1.788-1.313-4.898 6.67-2.749-2.019zm-1.567-16.692c-1.622-1.567-2.57-1.524-5.054-.321l-9.487 4.75 1.635 1.58 6.634-3.594-3.364 6.754 1.743 1.683 4.314-9.696.249-.097c1.228-.627 1.575-.396 2.272.278l.603.582 1.178-1.219-.723-.7zm-24.528-1.616l1.448 1.679 2.64-2.276c1.862 2.159 4.634 2.919 7.259.654 2.71-2.337 2.28-5.117.417-7.276l2.385-2.058-1.448-1.679-2.385 2.057c-1.85-2.145-4.55-2.991-7.26-.654-2.624 2.264-2.28 5.117-.417 7.277l-2.64 2.276zm10.424-6.063c1.132 1.312 1.282 2.856-.482 4.378-1.792 1.546-3.38 1.218-4.5-.081l4.982-4.297zm-6.43 2.618c-1.133-1.312-1.2-2.903.592-4.449 1.764-1.522 3.257-1.161 4.39.152l-4.982 4.297zm-11.84-12.922l1.28 1.811 8.46-.136-5.707 4.033 1.28 1.811 8.189-5.786-1.28-1.811-8.43.114 5.677-4.011-1.28-1.811-8.19 5.786zm-8.465-14.591l1.654 2.919 7.485-1.306-4.93 5.814 1.653 2.919 8.724-4.943-1.057-1.865-6.875 3.895 5.424-6.457-.846-1.492-8.359 1.352 6.908-3.914-1.056-1.865-8.725 4.943zm-3.494-7.374c1.22 2.742 4.078 3.571 6.803 2.358 2.724-1.212 4.004-3.883 2.822-6.539-.872-1.958-2.922-3.31-5.25-2.764l.88 1.975c1.347-.273 2.221.5 2.669 1.505.53 1.192.109 2.766-2.07 3.737-2.163.962-3.6.255-4.168-1.022-.492-1.107-.183-2.244.704-2.863l-.879-1.976c-1.867 1.26-2.405 3.58-1.51 5.589zm4.131-18.043l-.83-2.415-3.568 5.502-5.83-1.998.824 2.398 4.622 1.466.394 1.146-3.684 1.265.726 2.116 9.483-3.258-.726-2.115-4.142 1.423-.34-.987 3.071-4.543zm-6.835-5.867c-2.243.556-3.643-.365-3.983-1.74-.341-1.375.466-2.842 2.71-3.398 2.243-.556 3.624.369 3.965 1.744.34 1.375-.45 2.838-2.692 3.394zm-5.738-1.305c.587 2.37 2.78 4.399 6.29 3.53 3.527-.875 4.482-3.684 3.894-6.054-.587-2.37-2.744-4.408-6.271-3.534-3.51.87-4.5 3.688-3.913 6.058zm-3.428-20.747l.489 3.319 7.452 1.483-6.697 3.643.489 3.319 9.92-1.461-.313-2.121-7.818 1.152 7.39-4.065-.25-1.696-8.285-1.756 7.855-1.157-.312-2.121-9.92 1.461zm13.077-5.318c-.118-2.252-.841-2.867-3.478-3.68l-10.18-2.993.12 2.271 7.303 1.893-7.065 2.648.128 2.42 9.766-4.153.248.099c1.326.378 1.422.784 1.473 1.752l.044.837 1.694-.089-.053-1.005zm-10.987-25.661l-1.746-.138-.54 6.781 9.996.795.176-2.211-8.249-.656.363-4.571zm4.104-5.52c-2.282-.372-3.206-1.769-2.978-3.167.227-1.398 1.547-2.429 3.828-2.058 2.281.372 3.187 1.766 2.96 3.164-.228 1.398-1.53 2.432-3.81 2.061zm-4.763-3.457c-.392 2.41.826 5.138 4.394 5.719 3.587.584 5.57-1.623 5.963-4.033.392-2.41-.788-5.132-4.375-5.716-3.57-.581-5.59 1.62-5.982 4.03zm2.804-12.952c-.74 2.907.989 5.329 3.879 6.064 2.89.736 5.549-.568 6.266-3.385.529-2.077-.243-4.409-2.409-5.421l-.533 2.095c1.227.62 1.434 1.769 1.163 2.834-.322 1.265-1.628 2.24-3.94 1.651-2.293-.584-2.983-2.029-2.638-3.383.298-1.174 1.246-1.875 2.326-1.812l.534-2.095c-2.246-.168-4.106 1.32-4.649 3.452zm15.54-4.923c.74-2.13.302-2.973-1.833-4.721l-8.299-6.611-.746 2.148 6.05 4.508-7.542-.212-.795 2.289 10.612-.162.192.185c1.086.851 1.021 1.262.704 2.178l-.276.792 1.602.557.33-.951zm3.326-21.307l-.611 1.36-7.566-3.398-2.993 6.665 2.846 1.442c3.263 1.65 4.353 2.772 3.895 3.792l-.222.493 3.74 1.68.825-1.836-2.159-.97 3.001-6.68 2.16.969.824-1.836-3.74-1.68zm-1.52 3.384l-1.856 4.131c-.368-1.044-1.515-1.947-3.885-3.175l-1.51-.78 1.284-2.857 5.967 2.68zm4.187-12.583c1.494.842 1.733 2.089.928 3.518-.549.974-1.36 1.351-2.124.921-.99-.558-.765-1.907.53-4.814l.666.375zm2.135 4.754c.732-1.299.86-2.553.223-3.66.628.29.867.36 1.277.505l.997-1.77c-.832-.233-2.03-.802-3.135-1.424-.795-.448-1.816-1.066-2.238-1.303-2.766-1.623-4.648-.522-5.828 1.573-1.189 2.11-.787 4.283.91 5.41l1.07-1.9c-1.028-.643-1.136-1.666-.587-2.64.549-.975 1.479-1.563 2.973-.721l.162.091c-1.452 3.375-2.45 6.363-.258 7.598 1.59.896 3.364.141 4.434-1.759zm1.647-12.653c-1.906-1.306-2.186-2.877-1.364-4.076.886-1.29 2.493-1.296 4.23-.105 1.768 1.212 2.328 2.703 1.443 3.994-.822 1.199-2.403 1.494-4.309.187zm-5.336-1.082l10.96 7.513 1.254-1.829-3.782-2.592c1.152.066 2.22-.468 2.978-1.575 1.39-2.029.758-4.7-1.901-6.522-2.644-1.813-5.363-1.44-6.754.59-.759 1.106-.872 2.294-.395 3.344l-1.106-.758-1.254 1.829zm10.277-14.175c-1.908 2.317-1.373 5.244.93 7.14 2.302 1.895 5.263 1.846 7.11-.398 1.363-1.655 1.657-4.093.128-5.931l-1.374 1.669c.846 1.083.545 2.211-.154 3.06-.83 1.007-2.426 1.334-4.268-.182-1.827-1.505-1.836-3.106-.948-4.185.77-.935 1.926-1.166 2.877-.65l1.374-1.668c-1.961-1.108-4.277-.553-5.675 1.145zM56.038 50.83l-1.253-1.224-6.33 6.479 1.253 1.224 2.397-2.453 5.919 5.783 1.55-1.586-5.919-5.783 2.383-2.44zm2.031-4.166l6.551 7.59 3.753-3.238c1.707-1.474 2.417-3.219 1.017-4.841-.865-1.002-1.88-1.037-2.823-.617.408-.869.284-1.697-.386-2.473-1.352-1.566-2.962-.866-4.543.498l-3.57 3.081zm4.358 1.655l-1.547-1.792 1.75-1.51c.832-.718 1.509-.933 2.081-.27.585.678.312 1.331-.52 2.05l-1.764 1.522zm1.047 1.213l1.862-1.607c1.016-.877 1.705-1.077 2.326-.357.584.677.383 1.442-.619 2.306l-1.877 1.62-1.692-1.962zm15.424-11.95c-1.794-2.842-4.837-3.75-7.333-1.954-2.314 1.667-2.74 4.615-.975 7.065 1.688 2.344 4.612 3.247 7.228 1.363 2.087-1.503 2.369-3.727 1.795-5.29l-1.77 1.275c.239 1-.226 1.886-1.179 2.572-1.028.74-2.62.762-3.83-.663l6.064-4.368zm-6.32-.547c1.059-.763 2.582-.688 3.543.55l-4.235 3.049c-.934-1.647-.155-2.99.692-3.6zm19.482-2.221l-5.123-8.62-1.907 1.133 2.047 3.445-3.845 2.285-2.047-3.444-1.907 1.133 5.123 8.62 1.907-1.134-2.18-3.669 3.844-2.285 2.18 3.669 1.907-1.133zm11.163-5.396l-4.346-9.036-1.999.961 1.737 3.611-4.031 1.939-1.737-3.611-1.998.961 4.346 9.036 1.998-.961-1.85-3.846 4.031-1.939 1.85 3.846 1.999-.961zm2.927-6.467c-.815-2.162-.065-3.66 1.26-4.16 1.326-.499 2.878.131 3.693 2.294.815 2.162.058 3.643-1.267 4.142-1.326.5-2.871-.113-3.686-2.276zm.623-5.851c-2.285.861-4.043 3.276-2.768 6.66 1.281 3.4 4.184 4.02 6.468 3.159 2.285-.861 4.057-3.242 2.775-6.643-1.275-3.383-4.191-4.037-6.475-3.176zm20.202-5.835l-3.239.875-.599 7.575-4.403-6.225-3.238.875 2.613 9.68 2.07-.559-2.06-7.629 4.902 6.862 1.656-.447.773-8.433 2.07 7.665 2.069-.559-2.614-9.68zm6.814 12.365c2.223-.382 2.749-1.172 3.248-3.886l1.779-10.46-2.241.384-1.025 7.475-3.457-6.705-2.388.41 5.268 9.212-.069.258c-.22 1.361-.612 1.504-1.567 1.668l-.827.142.287 1.671.992-.17zm26.58-5.69l-.324-10.023-2.216.072.129 4.005-4.471.144-.129-4.005-2.217.072.323 10.021 2.217-.071-.137-4.266 4.47-.144.138 4.266 2.217-.072zm12.68-3.705c.392-3.338-1.403-5.958-4.474-6.13-2.847-.158-5.032 1.867-5.2 4.882-.161 2.884 1.546 5.424 4.765 5.604 2.568.143 4.185-1.41 4.721-2.985l-2.177-.121c-.444.927-1.362 1.324-2.534 1.258-1.266-.07-2.517-1.055-2.563-2.924l7.462.416zm-4.57-4.399c1.302.073 2.44 1.088 2.409 2.655l-5.21-.29c.309-1.869 1.759-2.423 2.801-2.365zm16.304-3.149l-2.193-.33-.519 3.446c-2.82-.424-5.417.806-5.934 4.233-.532 3.539 1.605 5.368 4.424 5.793l-.468 3.115 2.193.33.469-3.115c2.801.422 5.4-.694 5.933-4.233.516-3.428-1.604-5.368-4.424-5.793l.519-3.446zm-3.958 11.391c-1.714-.258-2.834-1.331-2.487-3.635.352-2.34 1.771-3.126 3.467-2.87l-.98 6.505zm3.173-6.175c1.714.258 2.801 1.42 2.449 3.761-.347 2.304-1.715 3.002-3.429 2.745l.98-6.506zm15.796 3.462l.417-1.701-8.797-2.156-.417 1.702 3.33.816-1.969 8.037 2.154.528 1.97-8.037 3.312.811zm12.055 2.137l-4.044-1.364c-2.384-.804-4.007-.132-4.656 1.793-.459 1.36-.015 2.493.855 3.239l-3.677 3.028 2.384.804 3.051-2.63 1.889.638-1.107 3.284 2.101.71 3.204-9.502zm-2.661.951l-.977 2.896-1.731-.583c-1.059-.357-1.588-.949-1.248-1.955.333-.99 1.201-1.287 2.313-.912l1.643.554zm11.83 13.846l4.025-9.183-2.031-.89-1.609 3.669-4.096-1.796 1.609-3.67-2.032-.89-4.025 9.183 2.031.89 1.713-3.908L220.7 27.5l-1.714 3.908 2.032.89zm6.812-1.991c1.11-2.027 2.735-2.433 3.978-1.753 1.242.68 1.775 2.268.665 4.295-1.11 2.027-2.726 2.417-3.969 1.737-1.242-.68-1.784-2.252-.674-4.28zm4.846-3.339c-2.141-1.172-5.119-.934-6.856 2.237-1.746 3.188-.325 5.793 1.816 6.966s5.102.967 6.847-2.22c1.737-3.172.335-5.81-1.807-6.983zm17.586 11.53l-2.773-1.888-6.138 4.478 1.856-7.394-2.773-1.888-5.643 8.288 1.771 1.206 4.448-6.532-2.014 8.19 1.418.964 6.902-4.905-4.468 6.563 1.772 1.206 5.642-8.288zm-4.943 13.223c1.737 1.438 2.679 1.323 5.063-.066l9.096-5.463-1.751-1.45-6.339 4.091 2.836-6.991-1.867-1.545-3.559 9.998-.24.115c-1.177.72-1.54.516-2.287-.102l-.646-.535-1.081 1.306.775.642zm27.122 10.185l1.289-1.187-6.138-6.662-1.288 1.188 2.323 2.521-6.085 5.608 1.503 1.63 6.085-5.606 2.311 2.508zm5.085 12.791c2.777-1.894 3.578-4.967 1.693-7.398-1.747-2.253-4.708-2.575-7.094-.725-2.283 1.77-3.082 4.725-1.107 7.273 1.576 2.032 3.809 2.235 5.35 1.606l-1.336-1.723c-.991.273-1.893-.16-2.612-1.088-.777-1.001-.855-2.592.527-3.852l4.579 5.907zm.324-6.335c.799 1.03.779 2.556-.424 3.559l-3.198-4.124c1.613-.991 2.982-.26 3.622.564zm11.118 13.587l-1.316-2.034-3.803-.18 1.433-3.48-1.418-2.191-2.273 5.578-6.256-.301 1.327 2.05 4.138.184-1.545 3.82 1.418 2.19 2.395-5.901 5.9.265zm-2.777 16.021l8.849-4.715-1.043-1.957-3.537 1.884-2.103-3.947 3.536-1.885-1.043-1.957-8.849 4.715 1.043 1.958 3.767-2.007 2.103 3.947-3.766 2.007 1.043 1.957zm14.203 7.775l-.862-2.044-8.293-1.683 6.441-2.714-.861-2.044-9.24 3.893.861 2.044 8.259 1.698-6.407 2.699.861 2.044 9.241-3.893zm-5.598 15.165l9.556-3.039-.672-2.113-4.245 1.35c-.427-.666-.679-1.212-.854-1.763-.412-1.296-.131-2.011 1.076-2.396l2.842-.903-.672-2.114-3.215 1.023c-2.078.66-2.658 2.096-2.019 4.103.276.871.637 1.636 1.225 2.564l-3.694 1.175.672 2.113zm7.349 12.242c3.319-.532 5.351-2.973 4.68-5.974-.622-2.783-3.165-4.334-6.112-3.675-2.819.631-4.799 2.964-4.095 6.111.561 2.51 2.495 3.643 4.157 3.73l-.476-2.128c-1.013-.175-1.645-.95-1.901-2.096-.276-1.237.33-2.709 2.116-3.261l1.631 7.293zm2.989-5.595c.284 1.273-.383 2.644-1.899 3.04l-1.138-5.092c1.881-.211 2.809 1.033 3.037 2.052zm3.915 12.705c-.396-2.975-2.902-4.578-5.858-4.185-2.956.393-4.939 2.593-4.556 5.475.282 2.124 1.866 4.001 4.253 4.135l-.285-2.143c-1.369-.119-1.989-1.108-2.134-2.198-.172-1.294.677-2.685 3.042-2.999 2.346-.312 3.524.772 3.709 2.158.159 1.201-.46 2.204-1.486 2.547l.285 2.144c2.147-.681 3.319-2.754 3.03-4.934zm-9.065 16.138l.113 2.551 4.979-4.268 5.027 3.564-.112-2.532-4.019-2.714-.054-1.21 3.891-.172-.098-2.234-10.017.443.098 2.234 4.376-.194.046 1.043-4.23 3.489zm4.898 7.561c2.309.101 3.391 1.38 3.329 2.795-.062 1.415-1.252 2.594-3.56 2.493-2.309-.101-3.373-1.379-3.311-2.794.062-1.415 1.233-2.595 3.542-2.494zm5.135 2.874c.107-2.439-1.423-5.006-5.035-5.164-3.631-.159-5.341 2.266-5.448 4.705-.107 2.44 1.386 5.005 5.016 5.163 3.613.158 5.36-2.265 5.467-4.704zm-2.579 20.87l.47-3.322-6.729-3.53 7.454-1.6.469-3.322-9.928-1.403-.3 2.122 7.824 1.106-8.236 1.81-.24 1.698 7.449 4.026-7.861-1.111-.3 2.123 9.928 1.403zm-14.047 1.403c-.523 2.194-.004 2.988 2.296 4.514l8.918 5.748.527-2.211-6.47-3.881 7.525-.543.562-2.356-10.542 1.221-.209-.165c-1.166-.738-1.143-1.154-.918-2.097l.195-.815-1.65-.394-.234.979zm-5.26 17.788c-.814 2.104-.406 2.961 1.668 4.782l8.064 6.895.82-2.121-5.89-4.715 7.53.473.874-2.26-10.611-.206-.185-.191c-1.056-.888-.978-1.297-.628-2.201l.302-.783-1.582-.611-.362.938zm-5.045 19.284l9.012 4.397.972-1.993-3.601-1.757 1.961-4.02 3.602 1.757.972-1.994-9.011-4.396-.973 1.993 3.836 1.871-1.961 4.02-3.836-1.871-.973 1.993zm2.043 16.062l1.149-1.897-3.505-7.702 5.978 3.621 1.149-1.896-8.576-5.196-1.149 1.896 3.473 7.683-5.945-3.602-1.15 1.897 8.576 5.196zm-2.859 4.038l-8.069-5.952-2.943 3.989c-1.338 1.815-1.644 3.674.08 4.946 1.065.786 2.063.595 2.889-.023-.205.938.099 1.718.924 2.326 1.665 1.229 3.081.189 4.32-1.491l2.799-3.795zm-4.616-.649l1.905 1.405-1.372 1.86c-.653.885-1.265 1.244-1.97.724-.72-.531-.599-1.229.054-2.114l1.383-1.875zm-1.29-.952l-1.46 1.98c-.797 1.08-1.424 1.428-2.189.864-.72-.531-.693-1.322.093-2.387l1.472-1.994 2.084 1.537zm-12.396 15.068c2.378 2.374 5.547 2.587 7.583.283 1.888-2.138 1.651-5.107-.612-7.106-2.165-1.912-5.217-2.146-7.351.271-1.703 1.928-1.485 4.159-.58 5.555l1.443-1.634c-.453-.923-.196-1.889.581-2.769.839-.95 2.388-1.324 3.883-.201l-4.947 5.601zm6.284-.865c-.864.978-2.366 1.243-3.576.248l3.454-3.911c1.275 1.4.813 2.881.122 3.663zm-10.067 5.379c1.591 1.676 1.536 3.27.482 4.271-1.136 1.077-2.709.746-4.159-.781-1.475-1.554-1.711-3.129-.576-4.207 1.054-1.001 2.662-.959 4.253.717zm4.992 2.173l-9.149-9.637-1.608 1.527 3.157 3.325c-1.113-.306-2.268-.007-3.241.917-1.784 1.694-1.724 4.438.496 6.776 2.207 2.325 4.944 2.528 6.728.834.973-.924 1.332-2.061 1.085-3.188l.924.973 1.608-1.527zm-13.011 11.715c2.349-1.867 2.437-4.841.582-7.176-1.855-2.334-4.761-2.905-7.037-1.096-1.678 1.333-2.475 3.656-1.364 5.773l1.693-1.345c-.602-1.236-.072-2.277.789-2.961 1.022-.811 2.652-.797 4.136 1.07 1.472 1.853 1.147 3.421.053 4.291-.949.753-2.127.738-2.949.034l-1.692 1.345c1.686 1.493 4.067 1.434 5.789.065zm-15.189 10.318l1.854-1.217.155-8.46 3.834 5.843 1.854-1.217-5.5-8.383-1.854 1.217-.176 8.429-3.814-5.812-1.854 1.216 5.501 8.384zm-12.188 4.64l.829 1.543 7.98-4.284-.829-1.544-3.021 1.622-3.914-7.29-1.954 1.049 3.914 7.291-3.005 1.613zm-13.654 1.738c1.142 3.161 3.92 4.702 6.743 3.483 2.617-1.131 3.667-3.919 2.469-6.691-1.145-2.652-3.807-4.161-6.767-2.883-2.361 1.02-3.114 3.132-2.889 4.781l2.002-.865c-.018-1.028.626-1.793 1.704-2.259 1.163-.503 2.723-.182 3.599 1.47l-6.861 2.964zm6.055 1.891c-1.197.518-2.669.118-3.341-1.297l4.79-2.069c.558 1.809-.491 2.952-1.449 3.366zm-16.025 5.569l.556 1.661 8.59-2.873-.556-1.662-3.252 1.088-2.625-7.847-2.103.703 2.625 7.848-3.235 1.082zm-7.466-9.989c-2.19.538-2.659 1.363-2.965 4.106l-1.034 10.559 2.208-.542.493-7.529 3.923 6.445 2.353-.578-5.907-8.817.051-.262c.123-1.374.504-1.544 1.445-1.775l.814-.2-.404-1.647-.977.24z" opacity=".6" fill="#fff"/></svg>