<svg width="173" height="149" viewBox="0 0 173 149" fill="none" xmlns="http://www.w3.org/2000/svg"><path d="M121.213 36.281c-10.708 0-20.665 3.32-29.017 8.887l5.996-30.409h46.041L162.757.947H86.842l-14.24 71.632h14.454c5.782-12.956 18.845-22.057 34.05-22.057 20.558 0 37.261 16.703 37.261 37.261 0 20.558-16.596 37.261-37.154 37.261v14.241c28.374-.107 51.395-23.128 51.395-51.502.107-28.481-23.021-51.502-51.395-51.502z" fill="#fff"/><path d="M121.533 75.684v6.425l3.427-3.641-.75-2.784h-2.677zm4.284 5.782l-2.891 2.89h3.747l-.856-2.89zm-4.284 15.633l6.425-6.853h-6.425v6.853z" fill="#fff"/><path d="M121.32 64.013c-13.277 0-24.092 10.815-24.092 24.092s10.815 24.091 24.092 24.091 24.091-10.814 24.091-24.091c0-13.277-10.814-24.092-24.091-24.092zm11.242 41.652l-.428-1.606-3.105-11.029-7.602 7.817v8.03h-.214c-11.564 0-20.88-9.422-20.88-20.88 0-8.35 4.926-15.525 11.993-18.951v3.64c-5.247 3.105-8.78 8.78-8.78 15.312 0 8.887 6.638 16.275 15.204 17.453V90.246h-2.463v-5.889h2.463v-8.78h-1.927V67.44c1.392-.321 2.891-.428 4.39-.428 11.563 0 20.879 9.422 20.879 20.879.107 7.495-3.748 14.026-9.53 17.774z" fill="#fff"/><path d="M121.322 70.33c-.535 0-1.071 0-1.606.107v2.356h6.96l3.212 11.564h2.891v5.889h-1.285l2.677 9.743c2.998-3.105 4.711-7.388 4.711-11.992.107-9.743-7.816-17.667-17.56-17.667zM79.132.84H18.957L.433 14.76h61.888L41.442 119.904h14.134L79.132.84zM31.485 135.217l.642 2.891h.214l.536-2.998 3.426-9.851h4.604l-6.21 15.633c-.428 1.177-.964 2.248-1.392 3.212-.428.856-.964 1.606-1.392 2.248-.535.643-1.07 1.071-1.713 1.285-.643.321-1.392.428-2.249.428-.75 0-1.285 0-1.713-.107a4.06 4.06 0 01-1.392-.642l1.178-3.533c.321.214.75.321.964.321.32 0 .642.107.963.107.964 0 1.713-.75 2.142-2.356l-8.459-16.489h5.247l4.604 9.851zm75.108 0l.643 2.891h.214l.535-2.998 3.426-9.851h4.605l-6.211 15.633c-.428 1.177-.963 2.248-1.392 3.212-.428.856-.963 1.606-1.392 2.248-.535.643-1.07 1.071-1.713 1.285-.642.321-1.392.428-2.248.428-.75 0-1.285 0-1.713-.107a4.056 4.056 0 01-1.392-.642l1.177-3.533c.322.214.75.321.964.321.321 0 .643.107.964.107.963 0 1.713-.75 2.141-2.356l-8.459-16.489h5.247l4.604 9.851zm-51.233-6.104h-8.673v18.631H42.19v-22.593h13.17v3.962zm14.776 9.208H61.89v9.423H57.5v-22.593h4.39v9.209h8.245v-9.209h4.39v22.593h-4.39v-9.423zm24.415-9.208h-6.638v18.631h-4.39v-18.631h-6.639v-3.962h17.667v3.962z" fill="#fff"/></svg>