<svg width="246" height="50" viewBox="0 0 246 50" fill="none" xmlns="http://www.w3.org/2000/svg"><g clip-path="url(#clip0_1_3039)" fill="#fff"><path d="M16.443 3.836v16.725h-4.125V8.223h-7.24V20.56H.955V3.836h15.489zM37.154 8.61c.462 1.085.697 2.273.697 3.572s-.235 2.487-.697 3.572a8.752 8.752 0 01-1.866 2.79 8.39 8.39 0 01-2.694 1.817 8.007 8.007 0 01-3.185.65c-1.236 0-2.286-.214-3.164-.636-.877-.421-1.457-.946-1.734-1.575v8.67h-4.124V3.837h3.993v1.755c.283-.629.87-1.154 1.769-1.575.898-.422 1.962-.636 3.198-.636 1.126 0 2.204.214 3.233.636a8.089 8.089 0 012.708 1.803 8.828 8.828 0 011.866 2.79zm-3.814 5.375c.235-.553.36-1.153.36-1.803a4.36 4.36 0 00-.36-1.79 4.202 4.202 0 00-.988-1.395 4.606 4.606 0 00-1.526-.912 5.76 5.76 0 00-1.962-.324c-1.037 0-1.962.214-2.757.635-.801.422-1.333.947-1.589 1.575v4.45c.263.628.788 1.153 1.59 1.575.8.42 1.72.635 2.756.635.711 0 1.367-.11 1.962-.325a4.385 4.385 0 001.526-.912 4.03 4.03 0 00.988-1.409zM44.836 3.836v10.038L52.4 3.836h4.125v16.725h-4.063v-10.03l-7.564 10.03h-4.124V3.836h4.062zm32.274 8.381c0 1.278-.241 2.452-.71 3.523a8.699 8.699 0 01-1.935 2.777 9.024 9.024 0 01-2.812 1.83 8.688 8.688 0 01-3.378.664 8.716 8.716 0 01-3.378-.663 9.152 9.152 0 01-2.812-1.831 8.802 8.802 0 01-1.934-2.777c-.477-1.07-.712-2.245-.712-3.523a8.73 8.73 0 01.712-3.51 8.84 8.84 0 014.746-4.663 8.664 8.664 0 013.378-.663c1.188 0 2.315.221 3.378.663a8.96 8.96 0 012.812 1.852 8.885 8.885 0 011.934 2.811 8.738 8.738 0 01.712 3.51zm-13.152-1.803a4.447 4.447 0 00-.36 1.803c0 .649.118 1.243.36 1.789.234.539.566 1.008.987 1.395.422.387.92.691 1.492.912a5.182 5.182 0 001.831.325c.65 0 1.257-.11 1.817-.325a4.51 4.51 0 001.479-.912 4.36 4.36 0 001.008-1.395 4.23 4.23 0 00.373-1.79c0-.649-.124-1.25-.373-1.802a4.27 4.27 0 00-1.008-1.41 4.672 4.672 0 00-1.48-.912 5.076 5.076 0 00-1.816-.324c-.65 0-1.264.11-1.83.324a4.43 4.43 0 00-1.493.912 4.027 4.027 0 00-.987 1.41zM96.73 8.61c.463 1.085.698 2.273.698 3.572s-.235 2.487-.697 3.572a8.748 8.748 0 01-1.866 2.79 8.382 8.382 0 01-2.694 1.817 8.006 8.006 0 01-3.185.65c-1.237 0-2.287-.214-3.164-.636-.877-.421-1.457-.946-1.734-1.575v8.67h-4.124V3.837h3.993v1.755c.283-.629.87-1.154 1.769-1.575.898-.422 1.962-.636 3.198-.636 1.126 0 2.204.214 3.233.636a8.08 8.08 0 012.708 1.803 9.068 9.068 0 011.866 2.79zm-3.82 5.375c.235-.553.36-1.153.36-1.803a4.36 4.36 0 00-.36-1.79 4.202 4.202 0 00-.988-1.395 4.608 4.608 0 00-1.527-.912 5.755 5.755 0 00-1.961-.324c-1.037 0-1.962.214-2.757.635-.801.422-1.333.947-1.589 1.575v4.45c.263.628.788 1.153 1.59 1.575.8.42 1.72.635 2.756.635a5.73 5.73 0 001.961-.325 4.388 4.388 0 001.527-.912c.422-.393.754-.856.989-1.409zm11.489-10.149v10.038l7.564-10.038h4.124v16.725h-4.062v-10.03l-7.565 10.03h-4.124V3.836h4.063zm28.883 4.387h-5.167V20.56h-4.124V8.223h-5.161V3.836h14.452v4.387zm10.943 8.635a7.96 7.96 0 002.984-.566c.954-.38 1.665-.884 2.141-1.513l1.265 3.185c-.519.863-1.347 1.589-2.487 2.176-1.14.587-2.487.877-4.042.877-1.278 0-2.459-.207-3.557-.615-1.092-.414-2.038-.995-2.84-1.754a8.079 8.079 0 01-1.885-2.757c-.457-1.084-.685-2.307-.685-3.668 0-1.188.201-2.314.602-3.378a8.673 8.673 0 011.72-2.812 8.291 8.291 0 012.694-1.934c1.05-.477 2.231-.712 3.557-.712 1.237 0 2.356.242 3.358.733a7.724 7.724 0 012.563 1.948 8.896 8.896 0 011.637 2.811 9.7 9.7 0 01.587 3.344c0 .242-.006.49-.013.76a4.58 4.58 0 01-.083.698h-12.4c.193 1.105.731 1.913 1.623 2.418.898.504 1.983.76 3.261.76zm3.412-6.556c-.131-.884-.566-1.56-1.298-2.03-.74-.463-1.617-.698-2.633-.698-1.015 0-1.927.235-2.728.697-.802.47-1.285 1.14-1.458 2.031h8.117zm20.525-2.079h-5.167V20.56h-4.118V8.223h-5.167V3.836h14.452v4.387zm8.041-.96c-.408 0-.781.062-1.119.186a3.76 3.76 0 00-.933.49 4.564 4.564 0 00-.76.699 5.478 5.478 0 00-.594.842l-1.472-2.521c.125-.484.339-.94.643-1.368a4.783 4.783 0 011.119-1.12 5.504 5.504 0 011.534-.759 6.04 6.04 0 011.872-.283c.87 0 1.644.131 2.314.394.67.262 1.23.628 1.686 1.098.449.47.795 1.015 1.03 1.637.234.622.352 1.292.352 2.01 0 .608-.07 1.168-.208 1.672a6.409 6.409 0 01-.621 1.486 11.33 11.33 0 01-1.016 1.471 50.699 50.699 0 01-1.402 1.637l-1.679 1.893h5.257v3.834h-10.749v-2.97l4.787-5.21c.339-.372.636-.697.885-.98.248-.283.456-.546.621-.808.166-.263.29-.505.374-.746.083-.242.131-.512.131-.809 0-.497-.187-.919-.553-1.264-.38-.338-.87-.511-1.499-.511zm13.112-3.192a9.025 9.025 0 013.392-.642 9.09 9.09 0 013.392.642 8.495 8.495 0 014.725 4.58c.47 1.078.704 2.26.704 3.544 0 1.3-.234 2.48-.704 3.551a8.539 8.539 0 01-1.914 2.77 8.684 8.684 0 01-2.811 1.804 9.062 9.062 0 01-3.392.642 9.051 9.051 0 01-3.392-.642 8.604 8.604 0 01-2.812-1.804 8.539 8.539 0 01-1.914-2.77c-.47-1.07-.704-2.252-.704-3.55 0-1.286.234-2.467.704-3.545a8.495 8.495 0 011.914-2.777 8.833 8.833 0 012.812-1.803zm3.392 13.057c.718 0 1.395-.118 2.031-.366a5.027 5.027 0 001.644-1.009 4.677 4.677 0 001.091-1.547 4.955 4.955 0 00.401-2.004 4.9 4.9 0 00-.401-1.996 4.736 4.736 0 00-1.091-1.562 5.027 5.027 0 00-1.644-1.008 5.669 5.669 0 00-2.031-.366c-.733 0-1.417.124-2.039.366a5.11 5.11 0 00-1.63 1.008 4.582 4.582 0 00-1.091 1.562 4.994 4.994 0 00-.401 1.996c0 .74.132 1.403.401 2.004.262.6.629 1.119 1.091 1.547a5.035 5.035 0 001.63 1.009c.622.241 1.3.366 2.039.366zm14.673.014c.746 0 1.354-.18 1.81-.54.463-.359.691-.842.691-1.45 0-.546-.207-.981-.622-1.299-.415-.318-.968-.477-1.672-.477-.483 0-.898.056-1.25.166-.353.11-.615.228-.781.353l-.587-2.619 2.874-3.599h-4.629v-3.84h9.375v2.735l-2.854 3.502c.408.097.83.256 1.272.477.442.228.85.539 1.229.933.373.4.684.898.926 1.506.242.607.359 1.34.359 2.196 0 .795-.145 1.541-.435 2.246a5.454 5.454 0 01-1.237 1.837 5.835 5.835 0 01-1.94 1.237c-.761.304-1.603.456-2.536.456-.704 0-1.333-.076-1.893-.235-.559-.159-1.05-.36-1.471-.622a4.378 4.378 0 01-1.05-.857 2.965 2.965 0 01-.608-.96l.843-3.088a5.73 5.73 0 001.657 1.368c.664.387 1.507.573 2.529.573zm13.25-13.071a9.032 9.032 0 013.392-.642 9.09 9.09 0 013.392.642 8.613 8.613 0 012.812 1.803 8.507 8.507 0 011.913 2.777c.47 1.078.705 2.26.705 3.544 0 1.3-.235 2.48-.705 3.551a8.552 8.552 0 01-1.913 2.77 8.689 8.689 0 01-2.812 1.804 9.032 9.032 0 01-3.392.642 9.059 9.059 0 01-3.392-.642 8.72 8.72 0 01-2.819-1.804 8.52 8.52 0 01-1.913-2.77c-.47-1.07-.705-2.252-.705-3.55 0-1.286.235-2.467.705-3.545a8.477 8.477 0 011.913-2.777 8.954 8.954 0 012.819-1.803zm3.392 13.057c.718 0 1.395-.118 2.031-.366a5.016 5.016 0 001.644-1.009 4.595 4.595 0 001.092-1.547c.262-.601.4-1.271.4-2.004 0-.718-.131-1.381-.4-1.996a4.652 4.652 0 00-1.092-1.562 5.016 5.016 0 00-1.644-1.008 5.669 5.669 0 00-2.031-.366c-.732 0-1.417.124-2.038.366a5.03 5.03 0 00-1.631 1.008 4.68 4.68 0 00-1.091 1.562 4.893 4.893 0 00-.401 1.996c0 .74.132 1.403.401 2.004.269.6.629 1.119 1.091 1.547a5.03 5.03 0 001.631 1.009 5.566 5.566 0 002.038.366zM241.721.997h-3.351l-3.861 6.687h3.343l3.869-6.687z"/><path d="M238.37.997h3.35l3.862 6.687h-3.343L238.37.997zM12.878 37.362v4.967l3.744-4.967h2.045v8.283h-2.01v-4.967l-3.751 4.967h-2.038v-8.283h2.01zm7.896 6.114a8.6 8.6 0 00.497-.981c.16-.366.304-.767.436-1.216.13-.442.228-.926.304-1.437.076-.511.11-1.064.11-1.658v-.822h5.983v6.107h1.16v4.373h-1.976v-2.204H21.9v2.204h-1.976v-4.373h.85v.007zm5.285 0v-3.938h-2.107c-.097.933-.242 1.713-.435 2.342-.194.628-.401 1.16-.63 1.596h3.172zm8.573.331a3.99 3.99 0 001.478-.283c.47-.187.822-.435 1.064-.746l.629 1.575c-.256.428-.67.787-1.23 1.078-.566.29-1.23.435-2.003.435a5.046 5.046 0 01-1.762-.304 3.976 3.976 0 01-2.342-2.238c-.228-.532-.338-1.14-.338-1.817 0-.588.096-1.147.297-1.672.2-.525.483-.988.85-1.389.373-.4.815-.718 1.333-.953s1.105-.352 1.761-.352a3.77 3.77 0 011.665.359c.498.242.919.566 1.271.967.346.4.622.864.816 1.389.193.524.29 1.077.29 1.657 0 .118 0 .242-.007.38-.007.132-.021.25-.042.346h-6.141c.097.546.366.946.801 1.195.442.249.974.373 1.61.373zm1.686-3.247a1.34 1.34 0 00-.643-1.002c-.366-.227-.801-.345-1.299-.345-.497 0-.953.117-1.354.346a1.456 1.456 0 00-.725 1.001h4.02zm11.923-.836a4.49 4.49 0 01.346 1.769 4.46 4.46 0 01-.346 1.768 4.297 4.297 0 01-.926 1.382 4.163 4.163 0 01-1.333.898 3.993 3.993 0 01-1.575.325c-.615 0-1.133-.104-1.568-.311-.435-.207-.719-.47-.864-.78v4.29H39.93V37.361h1.976v.87c.138-.31.428-.573.878-.78.442-.208.974-.311 1.581-.311.56 0 1.092.103 1.603.31.511.208.954.505 1.34.892.394.386.698.85.933 1.381zm-1.893 2.66c.118-.276.18-.573.18-.891 0-.318-.062-.615-.18-.884a2.061 2.061 0 00-.49-.691 2.164 2.164 0 00-.753-.45 2.94 2.94 0 00-.974-.158c-.512 0-.968.103-1.368.31-.4.208-.663.47-.788.781v2.204c.131.31.394.573.788.78.394.208.85.312 1.368.312.352 0 .677-.056.974-.16.297-.103.546-.255.753-.448.214-.194.373-.429.49-.705zm3.655-3.785a2.59 2.59 0 01.573-.629c.228-.18.484-.331.767-.456.276-.124.573-.214.891-.283a4.978 4.978 0 012.439.124c.442.152.829.367 1.146.643.318.276.574.622.746 1.036.18.415.263.884.263 1.41v5.194h-1.976v-.725c-.2.31-.518.546-.946.705a3.78 3.78 0 01-1.32.241 3.55 3.55 0 01-1.209-.193 3.058 3.058 0 01-.953-.539 2.296 2.296 0 01-.636-.85 2.745 2.745 0 01-.227-1.133c0-.442.09-.828.262-1.167.18-.338.415-.622.718-.85a3.185 3.185 0 011.037-.525c.394-.117.794-.18 1.216-.18.539 0 .974.063 1.312.187.339.124.567.256.684.394v-.214c0-.484-.159-.87-.477-1.16-.317-.29-.78-.436-1.388-.436-.525 0-1.002.104-1.423.304-.422.2-.76.463-1.009.774l-.49-1.672zm4.787 4.069c-.083-.152-.276-.283-.56-.394a2.782 2.782 0 00-.994-.166c-.54 0-.94.083-1.21.256-.269.173-.4.394-.4.677 0 .276.138.504.408.67.276.166.67.249 1.181.249.373 0 .705-.07.995-.2.29-.132.483-.298.58-.491v-.601zm11.42-5.306h1.976l1.298 8.283H67.46l-.718-4.373-1.935 4.373H63.17l-1.927-4.373-.74 4.373h-2.079l1.285-8.283h1.838l2.328 5.292 2.334-5.292zm6.943 0v4.967l3.744-4.967h2.045v8.283h-2.01v-4.967l-3.745 4.967h-2.045v-8.283h2.01zm18.783 7.025c-.25.408-.65.753-1.209 1.044-.56.29-1.209.435-1.948.435-.58 0-1.126-.11-1.651-.325a4.368 4.368 0 01-1.382-.898 4.464 4.464 0 01-.96-1.382 4.346 4.346 0 01-.352-1.768c0-.643.117-1.237.352-1.769.235-.539.553-.994.96-1.381a4.312 4.312 0 013.033-1.202c.739 0 1.382.145 1.92.435.54.29.933.635 1.167 1.03l-.58 1.706c-.214-.256-.518-.491-.918-.691A2.98 2.98 0 0089 39.317c-.753 0-1.347.2-1.803.6-.45.401-.677.933-.677 1.583 0 .656.228 1.181.677 1.589.449.407 1.05.608 1.803.608.525 0 .988-.104 1.381-.318.394-.214.705-.45.933-.705l.622 1.713zm7.938-4.856h-2.556v6.114H95.28V39.53h-2.563v-2.17h7.157v2.17zm1.223-.932c.152-.235.338-.442.573-.629.228-.18.484-.331.767-.456.276-.124.573-.214.891-.283a4.97 4.97 0 012.439.124 3.42 3.42 0 011.146.643c.318.276.574.622.746 1.036.18.415.263.884.263 1.41v5.194h-1.976v-.725c-.207.31-.518.546-.946.705-.428.158-.87.241-1.32.241-.442 0-.842-.062-1.209-.193a3.076 3.076 0 01-.953-.539 2.3 2.3 0 01-.636-.85 2.76 2.76 0 01-.227-1.133c0-.442.09-.828.262-1.167.18-.338.415-.622.719-.85a3.17 3.17 0 011.036-.525c.393-.117.794-.18 1.215-.18.539 0 .975.063 1.313.187.339.124.567.256.684.394v-.214c0-.484-.159-.87-.477-1.16-.318-.29-.78-.436-1.388-.436-.525 0-1.002.104-1.423.304-.422.2-.76.463-1.009.774l-.49-1.672zm4.794 4.069c-.083-.152-.276-.283-.56-.394a2.777 2.777 0 00-.994-.166c-.539 0-.94.083-1.202.256-.27.173-.401.394-.401.677 0 .276.138.504.407.67.277.166.671.249 1.182.249.373 0 .705-.07.995-.2.29-.132.483-.298.58-.491v-.601h-.007zm6.092-5.306v2.943h3.634v-2.943h2.038v8.283h-2.038v-3.171h-3.634v3.17h-2.044v-8.282h2.044zm15.945 4.152a4.21 4.21 0 01-.352 1.74 4.301 4.301 0 01-.954 1.375 4.355 4.355 0 01-1.388.905 4.277 4.277 0 01-1.672.332c-.587 0-1.147-.11-1.672-.332a4.597 4.597 0 01-1.389-.905 4.448 4.448 0 01-.96-1.375 4.276 4.276 0 01-.352-1.74c0-.622.118-1.203.352-1.735a4.21 4.21 0 01.96-1.388 4.39 4.39 0 011.389-.919 4.273 4.273 0 011.672-.331c.587 0 1.146.11 1.672.331a4.397 4.397 0 012.342 2.307 4.25 4.25 0 01.352 1.734zm-6.508-.899a2.27 2.27 0 00-.18.892c0 .324.056.614.18.884.118.27.283.497.491.69.207.194.455.346.739.45a2.638 2.638 0 001.803-.001c.276-.11.525-.255.732-.448.208-.194.373-.422.497-.691.125-.27.187-.56.187-.884 0-.318-.062-.622-.187-.892a2.12 2.12 0 00-.497-.697 2.203 2.203 0 00-.732-.45 2.623 2.623 0 00-1.803 0 2.09 2.09 0 00-1.23 1.147zm11.219-3.253c.421 0 .808.048 1.175.145.365.097.676.242.946.442.269.2.476.442.635.74.159.296.235.642.235 1.035 0 .346-.048.622-.152.843a2.107 2.107 0 01-.455.622c.311.2.566.456.766.767.201.304.297.69.297 1.167 0 .408-.083.767-.248 1.078-.166.31-.387.573-.671.788-.276.214-.601.38-.974.49a4.09 4.09 0 01-1.167.166h-3.572v-8.283h3.185zm-1.223 1.9v1.402h1.444c.249 0 .442-.07.58-.207a.656.656 0 00.208-.484.676.676 0 00-.208-.497c-.138-.138-.338-.207-.594-.207h-1.43v-.007zm0 3.053v1.43h1.879a.814.814 0 00.567-.2.697.697 0 00.207-.525.698.698 0 00-.207-.49c-.138-.146-.332-.215-.581-.215h-1.865zm12.173-4.953v8.283h-2.045v-2.46h-.677l-1.672 2.46h-2.363l1.879-2.763a2.828 2.828 0 01-1.126-1.016c-.269-.428-.4-.946-.4-1.561 0-.463.082-.87.241-1.237.159-.366.38-.67.657-.925.276-.25.608-.443.995-.58a3.813 3.813 0 011.236-.201h3.275zm-3.42 2.059c-.304 0-.539.09-.704.262a.875.875 0 00-.256.636c0 .255.09.462.276.621.18.16.415.235.691.235h1.381v-1.754h-1.388zm11.91.11h-2.556v6.114h-2.038V39.53h-2.563v-2.17h7.157v2.17zm8.214 4.856c-.249.408-.649.753-1.209 1.044-.56.29-1.209.435-1.948.435a4.379 4.379 0 01-3.033-1.223 4.444 4.444 0 01-.96-1.382 4.345 4.345 0 01-.353-1.768c0-.643.118-1.237.353-1.769.235-.539.552-.994.96-1.381a4.311 4.311 0 013.033-1.202c.739 0 1.381.145 1.921.435.538.29.932.635 1.167 1.03l-.58 1.706c-.215-.256-.518-.491-.92-.691a2.976 2.976 0 00-1.367-.304c-.753 0-1.347.2-1.803.6-.449.401-.677.933-.677 1.583 0 .656.228 1.181.677 1.589.449.407 1.05.608 1.803.608.525 0 .988-.104 1.382-.318.394-.214.704-.45.932-.705l.622 1.713zm7.544-7.025v8.283h-2.045v-2.46h-.677l-1.672 2.46h-2.362l1.879-2.763a2.821 2.821 0 01-1.126-1.016c-.27-.428-.4-.946-.4-1.561 0-.463.082-.87.241-1.237.159-.366.38-.67.657-.925a2.97 2.97 0 01.994-.58 3.84 3.84 0 011.237-.201h3.274zm-3.426 2.059c-.304 0-.539.09-.705.262a.88.88 0 00-.256.636c0 .255.091.462.277.621.179.16.414.235.69.235h1.383v-1.754h-1.389zM6.363 37.369l3.427 8.283-2.46-.007-1.948-4.857-1.94 4.857H.974l3.433-8.283 1.955.007z"/></g><defs><clipPath id="clip0_1_3039"><path fill="#fff" transform="translate(.954 .997)" d="M0 0h244.628v48.282H0z"/></clipPath></defs></svg>