<svg width="167" height="148" viewBox="0 0 167 148" fill="none" xmlns="http://www.w3.org/2000/svg"><g clip-path="url(#clip0_1_3028)"><path d="M.684 146.29l44.75-125.489h107.288v40.78l-13.958 8.075" stroke="#fff" stroke-width=".821"/><path d="M121.668 30.085v.905h-3.513v-.905h3.513zm-3.231-2.762v6.615h-1.141v-6.615h1.141zm4.108 0v6.615h-1.136v-6.615h1.136zm4.016.881l-1.976 5.734h-1.195l2.49-6.615h.763l-.082.881zm1.654 5.734l-1.981-5.734-.086-.881h.768l2.499 6.615h-1.2zm-.095-2.453v.904h-3.599v-.904h3.599zm4.098.15l1.682-4.312h1.258l-2.299 5.416a4.377 4.377 0 01-.25.486 1.808 1.808 0 01-.332.413c-.13.122-.288.218-.472.291-.185.07-.409.105-.673.105a4.138 4.138 0 01-.468-.027l.009-.895c.037.006.097.01.182.013.088.003.152.005.191.005a.855.855 0 00.418-.087.686.686 0 00.245-.24c.064-.104.12-.216.169-.337l.34-.831zm-1.263-4.312l1.663 3.662.327 1.19-.886.032-2.349-4.884h1.245zm6.23 0v6.615h-1.136v-6.615h1.136zm3.98 0l-2.69 3.77h-1.613l-.155-.99h1.137l1.926-2.78h1.395zm-1.163 6.615l-2.14-3.017.736-.877 2.771 3.894h-1.367zm4.598-5.734l-1.976 5.734h-1.196l2.491-6.615h.763l-.082.881zm1.654 5.734l-1.981-5.734-.087-.881h.768l2.5 6.615h-1.2zm-.095-2.453v.904h-3.599v-.904h3.599zM67.024 43.028l2.935-4.758h1.14v6.616h-1.14v-4.762l-2.935 4.762h-1.136V38.27h1.136v4.758zm9.824-.445l1.681-4.313h1.259l-2.3 5.417a4.35 4.35 0 01-.25.486 1.82 1.82 0 01-.331.413c-.13.122-.288.218-.472.291-.186.07-.41.105-.673.105a4.128 4.128 0 01-.468-.028l.009-.895c.036.006.097.01.182.014.088.003.151.004.19.004a.855.855 0 00.419-.086.689.689 0 00.245-.24 2.19 2.19 0 00.168-.337l.34-.831zm-1.263-4.313l1.663 3.663.327 1.19-.886.032-2.35-4.885h1.246zm9.442 2.763v.904h-3.513v-.904h3.513zm-3.231-2.763v6.616h-1.14V38.27h1.14zm4.107 0v6.616h-1.135V38.27h1.135zm2.486 4.758l2.935-4.758h1.14v6.616h-1.14v-4.762l-2.935 4.762h-1.136V38.27h1.136v4.758zm7.924-1.132h-1.685l-.01-.831h1.473c.248 0 .459-.036.631-.11a.875.875 0 00.4-.322.932.932 0 00.137-.513c0-.221-.043-.402-.128-.541a.729.729 0 00-.39-.304 1.95 1.95 0 00-.664-.096h-1.104v5.707h-1.14V38.27h2.244c.364 0 .688.035.972.105.288.07.532.179.732.327.203.146.356.33.459.555.106.224.16.49.16.8 0 .272-.066.522-.196.749a1.49 1.49 0 01-.578.55c-.254.142-.57.227-.949.254l-.364.286zm-.05 2.99H94.27l.513-.904h1.481c.258 0 .473-.042.646-.127a.89.89 0 00.386-.36 1.07 1.07 0 00.132-.54c0-.215-.038-.401-.114-.559a.783.783 0 00-.359-.368c-.163-.088-.377-.132-.64-.132h-1.282l.01-.831h1.667l.259.314c.363.012.661.092.895.24.236.149.412.341.527.577.115.236.172.491.172.764 0 .42-.092.774-.277 1.058a1.71 1.71 0 01-.786.65c-.342.145-.754.218-1.236.218zm7.779-.904v.904h-3.512v-.904h3.512zm-3.189-5.712v6.616h-1.141V38.27h1.141zm2.73 2.763v.89h-3.053v-.89h3.053zm.437-2.763v.91h-3.49v-.91h3.49zm3.467 4.149h-1.722v-.904h1.722c.299 0 .542-.049.727-.146a.91.91 0 00.404-.4c.088-.172.132-.37.132-.59 0-.21-.044-.404-.132-.586a1.009 1.009 0 00-.404-.446c-.185-.112-.428-.168-.727-.168h-1.373v5.707h-1.14V38.27h2.513c.511 0 .946.091 1.304.273.36.179.634.427.822.745.188.315.282.676.282 1.082 0 .427-.094.793-.282 1.1-.188.305-.462.54-.822.704-.358.163-.793.245-1.304.245zm7.338.314h1.136a2.627 2.627 0 01-.364 1.158 2.162 2.162 0 01-.868.795c-.372.194-.825.291-1.358.291-.409 0-.777-.073-1.105-.218a2.416 2.416 0 01-.84-.627 2.838 2.838 0 01-.536-.986 4.29 4.29 0 01-.182-1.29v-.55c0-.476.062-.906.186-1.29a2.86 2.86 0 01.546-.987 2.35 2.35 0 01.849-.631 2.786 2.786 0 011.123-.218c.527 0 .972.096 1.335.29.364.194.646.462.846.805.202.342.327.734.372 1.177h-1.136a2.096 2.096 0 00-.2-.732 1.028 1.028 0 00-.445-.463c-.197-.11-.454-.164-.772-.164-.261 0-.488.048-.682.145-.194.097-.356.24-.486.428a2.07 2.07 0 00-.296.695 4.177 4.177 0 00-.095.936v.559c0 .333.029.636.086.908.061.27.152.502.273.695.124.194.282.344.473.45.19.106.419.16.686.16.324 0 .586-.052.786-.155a1.03 1.03 0 00.459-.45c.106-.2.175-.444.209-.731zm3.299.295l2.935-4.758h1.14v6.616h-1.14v-4.762l-2.935 4.762h-1.136V38.27h1.136v4.758zm8.028-4.758v6.616h-1.131V38.27h1.131zm2.077 0v.91h-5.266v-.91h5.266zm5.203 5.712v.904h-3.513v-.904h3.513zm-3.19-5.712v6.616h-1.141V38.27h1.141zm2.731 2.763v.89h-3.054v-.89h3.054zm.436-2.763v.91h-3.49v-.91h3.49zm3.766 0v6.616h-1.131V38.27h1.131zm2.077 0v.91h-5.266v-.91h5.266zm1.681 2.54h1.668c.503 0 .931.085 1.286.255.357.166.63.401.818.704.19.303.286.656.286 1.059 0 .303-.055.58-.164.831-.106.252-.262.47-.468.655a2.167 2.167 0 01-.754.422c-.294.1-.629.15-1.004.15h-2.454V38.27h1.141v5.712h1.313c.288 0 .524-.053.709-.16.184-.108.321-.25.408-.426.092-.176.137-.368.137-.577a1.13 1.13 0 00-.137-.555.962.962 0 00-.408-.4c-.185-.1-.421-.15-.709-.15h-1.668v-.904zm5.88-2.54v6.616h-1.141V38.27h1.141zM49.92 59.803h-2.146v-5.111h-1.887v11.97h1.887v-5.147h2.146v5.147h1.923v-11.97H49.92v5.111zm79.57-5.111h-1.888v11.97h1.888v-11.97zm-74.529 0l-1.923 11.97h1.735l.329-2.181h2.345l.328 2.18h1.9l-1.947-11.97H54.96zm.375 8.206l.915-6.073.902 6.073h-1.817zm15.945-3.247l-.692 2.65v-7.61h-1.677v11.97h1.935l1.583-5.51.773-2.942v8.465h1.7V54.692h-2.087l-1.535 4.959zm29.954 4.021l.199-7.257h1.653V66.71h1.911V54.692h-5.334l-.305 9.062c0 1.173-.304 1.243-1.172 1.243v1.712h.281c1.888 0 2.685-.856 2.755-3.049m25.289.07v-1.605c0-1.911-.927-2.967-2.814-2.967h-.891v-4.466h-1.887v11.97h2.778c1.887 0 2.814-1.056 2.814-2.967m-3.705-2.813h.891c.598 0 .926.27.926 1.172v1.806c0 .856-.328 1.172-.926 1.172h-.891v-4.15zm-10.657 2.814v-1.572c0-1.91-.926-2.966-2.825-2.966h-.891v-4.466h-1.876v11.97h2.767c1.899 0 2.825-1.056 2.825-2.967zm-3.716-2.814h.891c.609 0 .938.27.938 1.172v1.806c0 .856-.329 1.172-.938 1.172h-.891v-4.15zm6.928.633h2.158v5.147h1.911v-11.97h-1.911v5.146h-2.158v-5.146h-1.876v11.97h1.876v-5.147zM66.79 54.692h-1.922v10.281h-2.146V54.692h-1.887v11.97h4.935v1.606h1.83v-3.295h-.821l.011-10.281zm28.524 12.005h1.9L95.29 54.692h-2.767l-1.922 12.005h1.735l.328-2.18h2.345l.304 2.18zm-2.344-3.81l.903-6.073.914 6.073H92.97zm43.237-6.483v-1.712h-5.146v11.97h5.146v-1.724h-3.259v-3.517h2.591V59.71h-2.591v-3.34l3.259.035zm-57.048-1.888a2.666 2.666 0 00-2.154.82 2.663 2.663 0 00-.707 2.193v6.249a2.862 2.862 0 005.722 0v-6.25a2.66 2.66 0 00-2.86-3.012zm.973 9.379c0 .856-.375 1.172-.973 1.172s-.985-.328-.985-1.172v-6.483c0-.856.387-1.173.985-1.173s.973.328.973 1.173v6.483zm5.194-2.345h2.204v5.147h1.911V54.692H87.53v5.146h-2.145v-5.146h-1.888v11.97h1.888l-.059-5.112zm26.461 9.262v-1.747h-5.147V81.07h5.147v-1.758h-3.26v-3.517h2.591v-1.677h-2.591v-3.341l3.26.035zm5.662 10.294h1.935l-2.627-6.66 2.627-5.346h-1.888l-2.474 5.23v-5.265h-1.875V81.07h1.875v-3.693l.586-1.102 1.841 4.83zm6.765 0v-10.33h2.005v-1.71h-5.862v1.71h1.969V81.07l1.888.036zm8.758-2.966v-1.607c0-1.922-.926-2.966-2.814-2.966h-.891v-4.502h-1.876V81.07h2.779c1.887 0 2.813-1.043 2.813-2.966m-3.704-2.813h.891c.609 0 .926.27.926 1.172v1.805c0 .856-.317 1.173-.926 1.173h-.891v-4.15zm-30.916-1.7v-1.56c0-1.922-.926-2.966-2.814-2.966H92.77V81.07h1.888v-4.513h.891c1.888 0 2.814-1.044 2.814-2.967zm-3.705-2.814h.891c.598 0 .926.27.926 1.172v1.806c0 .856-.328 1.172-.926 1.172h-.89v-4.15zm-9.38 10.293h1.889V70.777h2.145V81.07h1.911V69.065h-5.92l-.024 12.005zm48.749 0h1.887V69.065h-1.887V81.07zm-31.655-12.145a2.66 2.66 0 00-2.86 3.013v6.201a2.877 2.877 0 001.725 2.82 2.872 2.872 0 004.008-2.82v-6.201a2.672 2.672 0 00-2.873-3.014zm.985 9.379c0 .855-.375 1.172-.985 1.172-.609 0-.973-.328-.973-1.172V71.82c0-.856.376-1.172.973-1.172.598 0 .985.328.985 1.172v6.484zm28.982 10.117l-.692 2.65v-7.609h-1.677V95.48h1.935l1.582-5.51.774-2.955v8.465h1.689V83.462h-2.076l-1.535 4.96zm-27.892-5.088a2.655 2.655 0 00-2.145.825 2.654 2.654 0 00-.703 2.189v6.248a2.861 2.861 0 105.721 0v-6.249a2.667 2.667 0 00-.707-2.193 2.666 2.666 0 00-2.154-.82m.973 9.38c0 .855-.375 1.171-.973 1.171s-.985-.328-.985-1.172V86.23c0-.856.387-1.173.985-1.173s.973.329.973 1.173v6.483zm-7.808-9.25h-2.778v12.016h1.887v-4.514h.891c1.888 0 2.814-1.043 2.814-2.966v-1.56c0-1.922-.926-2.977-2.814-2.977zm.926 4.689c0 .855-.316 1.172-.926 1.172h-.89v-4.15h.89c.61 0 .926.27.926 1.172v1.806zm12.897-4.784c-1.853 0-2.814 1.09-2.814 3.013v6.25c0 1.922.961 3.012 2.814 3.012 1.852 0 2.813-1.09 2.813-3.013v-1.594h-1.793v1.711c0 .856-.376 1.173-.974 1.173-.597 0-.973-.317-.973-1.173V86.23c0-.856.376-1.173.973-1.173.598 0 .974.329.974 1.173v1.29h1.793v-1.173c0-1.923-.961-3.013-2.813-3.013m6.893 0c-1.852 0-2.813 1.09-2.813 3.013v6.249c0 1.923.961 3.013 2.813 3.013 1.853 0 2.814-1.09 2.814-3.013v-1.56h-1.782v1.712c0 .856-.375 1.173-.973 1.173s-.985-.317-.985-1.173V86.23c0-.856.387-1.173.985-1.173s.973.329.973 1.173v1.29h1.782v-1.173c0-1.923-.961-3.013-2.814-3.013zm6.53 5.088l-.691 2.65v-7.609h-1.677V95.48h1.935l1.582-5.51.774-2.955v8.465h1.7V83.462h-2.075l-1.548 4.96z" fill="#fff"/><mask id="mask0_1_3028" style="mask-type:alpha" maskUnits="userSpaceOnUse" x="-1" y="52" width="140" height="96"><path d="M43.578 52.945L.118 146.138a1.17 1.17 0 00.17 1.348 1.169 1.169 0 001.33.281l136.326-49.603a1.172 1.172 0 00.797-1.173V53.45a1.172 1.172 0 00-1.172-1.172h-92.9a1.172 1.172 0 00-1.09.691" fill="#fff"/></mask><g mask="url(#mask0_1_3028)"><path d="M.118 146.138l1.033.554.016-.029.014-.03-1.063-.495zm1.5 1.629l-.4-1.101-.034.012-.033.014.468 1.075zm136.326-49.603l-.374-1.112-.013.005-.014.005.401 1.102zm.797-1.173h-1.172v.031l.001.03 1.171-.06zM44.669 52.277l-.021 1.172h.02v-1.172zm-2.153.172l-43.46 93.193 2.125.991L44.64 53.44l-2.125-.99zm-43.43 93.134c-.231.429-.322.92-.261 1.404l2.326-.295-2.066-1.109zm-.261 1.404c.06.483.271.935.601 1.294l1.725-1.589-2.326.295zm.601 1.294c.33.358.764.605 1.24.705l.485-2.294-1.725 1.589zm1.24.705c.477.101.974.051 1.42-.144l-.935-2.15-.485 2.294zm1.354-.117l136.325-49.603-.802-2.204L1.218 146.666l.802 2.203zm136.297-49.594c.486-.163.904-.48 1.192-.904l-1.939-1.319.747 2.223zm1.192-.904c.288-.423.43-.93.403-1.44l-2.342.121 1.939 1.32zm.404-1.38V53.45h-2.344v43.54h2.344zm0-43.542c0-.622-.247-1.218-.686-1.658l-1.658 1.658h2.344zm-.686-1.658a2.347 2.347 0 00-1.658-.687v2.345l1.658-1.658zm-1.658-.687h-92.9v2.345h92.9v-2.345zm-92.88 0a2.347 2.347 0 00-1.297.365l1.256 1.98.041-2.345zm-1.297.365c-.388.246-.695.6-.883 1.019l2.139.96-1.256-1.98z" fill="#fff"/></g></g><defs><clipPath id="clip0_1_3028"><path fill="#fff" d="M0 0h166.954v147.796H0z"/></clipPath></defs></svg>