<svg width="197" height="32" viewBox="0 0 197 32" fill="none" xmlns="http://www.w3.org/2000/svg"><g clip-path="url(#clip0_1_3073)" fill="#fff"><path d="M128.789.747h-16.071c-.178 0-.267.089-.267.267-.447 7.232-1.786 15.089-3.75 21.428v.267c.089.09.178.09.268.09h5.535c.089 0 .268-.09.268-.179 1.518-4.91 2.768-11.338 3.214-16.785h5.268v16.696c0 .178.089.268.267.268h5.268c.179 0 .268-.09.268-.268V1.104c0-.179-.089-.357-.268-.357zm67.942 0h-5.267c-.179 0-.268.089-.268.267v16.607c-1.161.357-2.321.446-3.571.446-3.482 0-4.286-1.072-4.286-5.714V1.103c0-.178-.089-.267-.268-.267h-5.267c-.179 0-.268.09-.268.268v11.963c0 7.5 2.5 10.446 9.017 10.446 3.661 0 7.857-.982 10.268-1.875.089 0 .178-.178.178-.268V1.104c0-.179-.089-.357-.268-.357zM85.577.836H80.22c-.178 0-.267.09-.267.178-.804 3.304-2.5 8.84-4.822 14.642L69.776.926c0-.09-.179-.18-.268-.18H64.15c-.09 0-.179.09-.268.09-.09.09-.09.178 0 .268l8.035 21.963c-.803 1.696-1.607 3.124-2.32 4.464a94.099 94.099 0 00-1.608 3.035c-.09.09 0 .179 0 .268.09.09.179.179.268.179h5.803c.09 0 .179-.09.268-.179.982-1.875 2.232-4.553 3.393-7.232 3.392-8.035 6.16-15.534 8.213-22.41 0-.088 0-.178-.089-.267-.09-.09-.178-.09-.268-.09zm19.106 16.874c0-.09-.089-.179-.178-.179h-.268c-1.25.447-3.661.893-5.357.893-3.66 0-5.357-.982-5.357-6.607 0-4.464.536-6.606 5.357-6.606 1.339 0 2.678.178 4.286.714.178 0 .267 0 .357-.179.625-1.16 1.339-2.5 2.142-4.285v-.268c0-.09-.089-.179-.178-.179-2.143-.714-4.732-1.071-6.964-1.071-7.678 0-11.07 3.571-11.07 11.696 0 8.213 3.392 11.874 11.07 11.874 1.875 0 5.714-.446 7.499-1.16.179-.09.179-.18.179-.358l-1.518-4.285zM154.591.836h-5.357c-.089 0-.268.09-.268.178-.803 3.304-2.5 8.84-4.821 14.642L138.788.926c0-.09-.178-.18-.267-.18h-5.357c-.09 0-.179.09-.268.09-.089.09-.089.178 0 .268l8.035 21.963c-.803 1.696-1.607 3.035-2.321 4.464a92.152 92.152 0 00-1.607 3.035c-.09.09 0 .179 0 .268.089.09.178.179.268.179h5.803c.089 0 .178-.09.268-.179.982-1.875 2.232-4.553 3.392-7.232 3.393-8.035 6.161-15.534 8.125-22.41 0-.088 0-.178-.089-.267 0-.09-.09-.09-.179-.09zm19.642-.09h-15.535c-.179 0-.268.09-.268.268v21.517c0 .178.089.268.268.268h5.267c.179 0 .268-.09.268-.268V5.925h8.125c.089 0 .268-.09.268-.179.625-1.428 1.25-3.035 1.875-4.553V.925c-.09-.09-.179-.178-.268-.178zM28.527 18.602c-3.482 0-4.553-.982-4.553-6.785 0-6.25 1.16-6.785 4.553-6.785s4.643.536 4.643 6.785c0 5.893-1.16 6.785-4.643 6.785zm0-18.48c-7.589 0-10.535 3.214-10.535 11.606 0 8.482 2.946 11.785 10.535 11.785 7.59 0 10.625-3.303 10.625-11.785 0-8.303-3.036-11.606-10.625-11.606zM60.043 17.71c0-.09-.089-.179-.178-.179h-.268c-1.25.447-3.66.893-5.357.893-3.66 0-5.357-.982-5.357-6.607 0-4.464.536-6.607 5.357-6.607 1.34 0 2.678.18 4.285.715.09 0 .268 0 .358-.179.625-1.16 1.339-2.5 2.142-4.285v-.268c0-.09-.089-.179-.178-.179C58.793.39 56.204.032 53.972.032c-7.678 0-11.07 3.571-11.07 11.696 0 8.214 3.392 11.874 11.07 11.874 1.875 0 5.714-.446 7.5-1.16.178-.09.178-.179.178-.358l-1.607-4.374zM16.385.746H.85c-.178 0-.267.179-.267.358V22.62c0 .179.089.268.267.268h5.268c.178 0 .268-.09.268-.268V5.925h8.124c.09 0 .179-.09.268-.179.625-1.428 1.25-3.035 1.875-4.553V.925c-.09-.09-.179-.179-.268-.179z"/></g><defs><clipPath id="clip0_1_3073"><path fill="#fff" transform="translate(.583 .032)" d="M0 0h196.417v30.98H0z"/></clipPath></defs></svg>