<svg width="195" height="104" viewBox="0 0 195 104" fill="none" xmlns="http://www.w3.org/2000/svg"><path d="M10.142 27.72c-2.077 0-3.953-.505-5.629-1.514-1.676-1.01-2.961-2.352-3.857-4.028l4-2.172c1.22 2.21 3.048 3.314 5.486 3.314 1.295 0 2.447-.38 3.457-1.142a6.067 6.067 0 002.142-2.972H7.6v-4h8.114c-.4-1.161-1.115-2.123-2.143-2.885a5.457 5.457 0 00-3.428-1.171c-2.438 0-4.267 1.104-5.486 3.314l-4-2.171c.896-1.677 2.181-3.02 3.857-4.029C6.19 7.254 8.065 6.75 10.142 6.75c2.895 0 5.361 1.028 7.4 3.085 2.056 2.038 3.085 4.505 3.085 7.4 0 2.895-1.029 5.371-3.086 7.428-2.038 2.038-4.504 3.057-7.4 3.057zm14.765-.4V7.036h4.543v7.942h8.17V7.036h4.544V27.32H37.62v-8.028h-8.17v8.028h-4.543zm37.853 4.228V27.32H50.332v4.228h-4.086v-8.57h.343c1.714 0 2.571-1.81 2.571-5.429V7.036h15.057v15.941h2.628v8.571H62.76zm-9.029-20.17v6.543c0 2.076-.342 3.761-1.028 5.056h6.942V11.378h-5.914zM68.825 27.32L77.51 7.036h4.114L90.31 27.32h-4.742l-1.8-4.285h-8.4l-1.8 4.285h-4.742zm10.742-14.313l-2.571 6.085h5.114l-2.543-6.085zM92.84 27.349l.885-4.229c.724.153 1.305.229 1.743.229 1.067 0 1.867-.362 2.4-1.086L90.011 7.036h5.2l5.257 10.17 5-10.17h5.199l-7.542 15.113c-.991 1.962-2.048 3.371-3.171 4.228-1.124.857-2.495 1.286-4.114 1.286-.953 0-1.953-.105-3-.314zm20.897-.029V7.036h4.142l6.314 10.342 6.343-10.342h4.142V27.32h-4.571v-11.6l-4.399 7.257h-2.972l-4.457-7.313V27.32h-4.542zm26.364 0V7.036h12.857v4.342h-8.314v3.629h6.6v4.342h-6.6v3.628h8.314v4.343h-12.857zm17.465 0V7.036h4.542v7.942h8.171V7.036h4.543V27.32h-4.543v-8.028h-8.171v8.028h-4.542zm26.338 0V11.378h-5.171V7.036h14.971v4.342h-5.229V27.32h-4.571zM15.227 62.177h-4.571v-2.485c-2.99 0-5.352-.743-7.086-2.229-1.733-1.505-2.6-3.638-2.6-6.4 0-2.723.867-4.837 2.6-6.342 1.753-1.504 4.115-2.257 7.086-2.257V40.18h4.57v2.285c2.972 0 5.324.753 7.058 2.257 1.752 1.505 2.628 3.619 2.628 6.343 0 2.761-.867 4.895-2.6 6.4-1.733 1.485-4.095 2.228-7.085 2.228v2.485zm0-15.627v9.028c3.39 0 5.085-1.515 5.085-4.543 0-2.99-1.695-4.485-5.085-4.485zm-4.571 9.028V46.55c-3.39 0-5.086 1.495-5.086 4.485 0 3.028 1.696 4.543 5.086 4.543zm23.663-.115c1.161 1.2 2.561 1.8 4.2 1.8 1.637 0 3.028-.6 4.17-1.8 1.143-1.2 1.715-2.628 1.715-4.285s-.572-3.086-1.714-4.286c-1.143-1.2-2.534-1.8-4.172-1.8s-3.038.6-4.2 1.8c-1.142 1.2-1.713 2.629-1.713 4.286 0 1.657.57 3.085 1.714 4.285zm11.599 3.114c-2.038 2.058-4.505 3.086-7.4 3.086-2.895 0-5.37-1.019-7.428-3.057-2.038-2.057-3.057-4.533-3.057-7.428 0-2.895 1.02-5.362 3.057-7.4 2.057-2.057 4.533-3.085 7.428-3.085 2.895 0 5.362 1.028 7.4 3.085 2.057 2.057 3.086 4.524 3.086 7.4 0 2.876-1.029 5.342-3.086 7.4zm7.363 2.743V41.036h4.542v7.942h8.171v-7.942h4.543V61.32h-4.543v-8.028h-8.17v8.028H53.28zm37.852 4.228V61.32H78.705v4.228H74.62v-8.57h.342c1.715 0 2.572-1.81 2.572-5.429V41.036H92.59v15.941h2.628v8.571h-4.085zm-9.028-20.17v6.543c0 2.076-.343 3.761-1.029 5.056h6.943V45.379h-5.914zM1.71 95.627c.553.203 1.065.256 1.533.16.47-.106.89-.463 1.263-1.07l.543-.864.16-.175 4.107-7.831H10.9l-4.97 9.205c-.374.703-.81 1.236-1.311 1.598a2.978 2.978 0 01-1.598.575c-.565.043-1.14-.063-1.726-.32l.415-1.278zm3.45-.527L.255 85.847h1.71l4.075 7.975-.879 1.278zm7.396 1.934V85.847h7.335l-.016 1.39H13.74l.384-.4.016 10.197h-1.582zm17.262-11.187h1.598v11.187h-1.598V85.847zm-6.425 11.187h-1.598V85.847h1.598v11.187zm6.569-4.986h-6.729v-1.39h6.728v1.39zm7.228 4.986V86.822l.4.415h-4.22v-1.39h9.222v1.39h-4.22l.384-.415v10.212H37.19zm6.828-1.407c.554.203 1.066.256 1.535.16.468-.106.89-.463 1.262-1.07l.543-.864.16-.175 4.108-7.831h1.582l-4.97 9.205c-.373.703-.81 1.236-1.311 1.598a2.978 2.978 0 01-1.598.575c-.565.043-1.14-.063-1.726-.32l.415-1.278zm3.452-.527l-4.906-9.253h1.71l4.075 7.975-.879 1.278z" fill="#fff"/></svg>