<svg width="912" height="628" viewBox="0 0 912 628" fill="none" xmlns="http://www.w3.org/2000/svg"><path d="M700.934 1.6c-66.267 6-176.401 72.933-287.201 174.533L393.6 194.667l-35.867-1.467c-20-.8-53.6-1.067-76.4-.667C130.8 195.6 29.467 222.933 10.8 265.6 8 271.733.933 332.933 1.067 348.667c.133 12.4 6.933 24.533 21.6 38.4 15.466 14.8 31.866 25.466 61.333 40l24.667 12.133-5.6.933c-3.067.534-7.067 2-8.933 3.2-3.6 2.4-8 10.667-6.8 12.667.4.8 3.866 1.333 7.733 1.333 5.733 0 7.2-.533 9.6-3.6 2.266-2.8 3.6-3.333 6.4-2.533 4.8 1.2 5.2 7.467.533 7.467-7.6 0-19.066 4.133-22.8 8.266-3.2 3.6-3.733 4.934-3.066 9.867.666 6.267 2.8 9.067 8.266 11.2 5.334 2 10.133 1.6 15.733-1.333 5.867-3.2 6.267-3.2 6.267-.667 0 1.6 1.733 2 8 2h7.867l.4-17.733.4-17.6 6.533 12.666c3.6 6.934 7.2 13.734 8 15.067 1.2 1.867.533 4.933-2.667 14.267-2.4 6.666-3.866 12.266-3.333 12.533.933.533 16.4-.267 16.8-.8.133-.267 3.333-9.733 7.333-21.067 3.867-11.333 7.467-21.2 8-21.733.534-.533 2.534-.667 4.534-.133 3.466.8 3.466.933 3.466 12.666 0 9.6.4 11.867 2 11.867 2.534 0 2.534-1.067-.8 15.067-2.133 10.533-2.666 16.533-2.133 26.266 1.067 20.4 3.2 24.534 25.333 48.267 44.934 48.533 44.667 48.4 74.934 48.267 15.866 0 20.666-.534 32.133-3.467 47.6-12.4 112-47.333 173.867-94.133L498 519.733l13.333.8c53.6 3.467 143.734 3.2 186.667-.533 62-5.333 110.934-14.533 145.067-27.6 6.533-2.4 13.867-4.4 16.4-4.4 3.467 0 4.533-.533 4.533-2.4 0-1.333 3.2-4 8.267-6.933 11.067-6.267 22.4-16.934 26.933-25.334 3.467-6.4 4-9.733 7.734-44.4 2.133-20.666 3.6-40.666 3.2-44.4-2-22.933-29.734-49.6-75.334-72.533-22.8-11.467-65.733-29.333-70.4-29.333-1.333 0-1.733-3.867-1.733-14.667v-14.533l9.6-17.067c36-64.4 48-115.2 33.733-143.067-3.6-6.933-51.733-58.933-59.6-64.266-10-6.8-25.066-9.334-45.466-7.467zM730 7.2c3.734.933 8.534 2.667 10.934 3.867 10.266 5.333 19.466 19.2 21.2 31.866l.8 6-12.134.8c-44.266 3.2-113.466 35.867-184.266 87.067l-11.467 8.267-4.533-6.8c-3.067-4.534-6.801-8-11.867-10.8-6.8-3.867-8.267-4.134-20.667-4.134-11.2 0-14.267.534-19.6 3.067-11.867 6-19.467 16-20.8 27.867l-.667 5.733h14c13.334 0 13.867-.133 14-3.067.4-4 6.4-8.933 11.067-8.933 2.133 0 5.6 1.467 7.867 3.467 3.466 2.8 4.133 4.4 4 8.933 0 5.6-.267 5.733-18.8 20.933-10.4 8.4-20.667 16.534-22.934 18.134l-4.133 2.8-28-2.934c-15.333-1.733-30.4-4-33.333-5.066-2.934-1.2-8-2.134-11.334-2.267h-6l8-7.333C464.533 136 506 102.8 551.6 72.8 627.867 22.533 694.934-2.133 730 7.2zM783.734 54c8.933 9.467 17.466 20 19.066 23.333 12.667 26.667.267 74.8-35.2 137.6l-8 14.4h-44.266v8.267c0 5.333-.534 8.4-1.6 8.667-1.334.533-1.734-1.734-1.734-8.134v-8.8h-22.666l11.066-16.4c46.8-68.8 72.267-133.733 66.534-169.333-.667-4.267-.8-7.467-.267-7.333.533.266 8.267 8.133 17.067 17.733zm-21.467 10.267c-2.667 34.933-26.933 88.8-66.533 147.333l-12 17.733h-25.067V208L636 207.733l-22.666-.4 8.933-6c11.467-7.733 23.2-19.2 26.4-26 1.733-3.466 2.8-9.066 3.067-16 .4-9.6.133-11.333-3.334-18-6.4-12.266-18.266-18.666-34.666-18.666-20.934 0-37.467 12.8-39.867 31.2l-.933 6.133H586.4c13.334 0 13.6 0 14.4-3.333 1.734-6.934 10.4-10.667 16.934-7.067 4.533 2.4 6.133 5.333 6.266 11.333 0 7.734-2.933 10.667-28.666 29.067-20.934 14.933-22 15.867-22 20.133 0 3.467-.534 4.534-2.267 4.534-5.067 0-8.4-1.734-8.4-4.134 0-2.4-1.334-2.533-19.6-2.533-10.934 0-20.534-.533-21.6-1.2-1.334-.8.4-2.667 6.666-6.933 10.934-7.334 21.201-17.734 24.534-24.534 1.467-3.066 2.8-9.6 3.2-15.6l.8-10.133 8-5.867c51.867-38.133 113.2-71.333 153.467-83.066 12.4-3.6 30.8-6.934 39.733-7.2l5.2-.134-.8 10.934zM344 197.467c23.067.8 42.133 1.6 42.4 1.733.533.667-5.867 8-21.733 24.667-8 8.533-18.4 19.6-23.067 24.533l-8.533 8.933h-34.8c-111.734 0-204.667 14.134-254 38.534-14.534 7.066-24.134 13.6-30.8 20.8-6.4 6.933-6.267 8.666-2.934-22.134 1.6-15.2 3.334-25.066 4.8-28C25.867 246 56.267 229.067 105.2 216.8c42.533-10.667 98.267-17.467 155.467-19.067 16.933-.4 30.933-.933 31.2-1.2.8-.8 6-.666 52.133.934zm121.067 7.733c12.133 1.2 13.466 1.867 10.666 4.4C465.2 219.467 446.8 236 446.4 236c-.133 0-.533-3.467-.533-7.733-.267-7.734-3.2-16-8.134-22.8l-2.4-3.2 9.334.8c5.2.533 14.266 1.466 20.4 2.133zM520 233.333h42.667V226c0-6.933.267-7.333 3.2-7.333 6.4 0 7.467 1.2 7.467 8.133v6.533H638.4l.8 2.934c.4 1.733.8 5.866.8 9.333v6.267l13.334.4 13.2.4-15.6 19.6c-8.534 10.8-16.267 19.866-16.934 20.133-.8.4-6.666-.533-13.066-1.867-38.4-8.4-107.201-19.066-152.934-23.866-14.267-1.467-29.2-3.067-33.2-3.467l-7.067-.8 4-2.8c2.134-1.6 5.734-5.333 7.734-8.267 2-2.933 11.2-12.4 20.4-20.933l16.8-15.6.4 9.333.4 9.2H520zm-143.067 14c1.6 2.934 4 6.534 5.6 7.867 1.6 1.467 2.8 3.067 2.8 3.733 0 .667-4.666.8-10.266.4-5.734-.4-15.734-.933-22.267-1.333-6.533-.267-12-.8-12.267-.933-.133-.267 6.934-8.134 15.867-17.6l16.267-17.2.8 9.866c.4 6.134 1.733 11.867 3.466 15.2zm344.801 6.134c11.733 3.6 12.933 4.4 12.933 9.733 0 4-4.667 11.867-14.667 24.533l-3.466 4.4-2.4-5.466c-2.667-6-10.134-12.267-17.6-14.667L692 270.4l5.6-6.667c3.2-3.6 6.934-8.133 8.4-9.866 3.334-3.867 4-3.867 15.734-.4zm-44.4-.667c0 .4-3.6 4.8-8 9.6l-8 8.933v17.6l10.133.8C684.4 290.667 688 292.933 688 300c0 3.467-.666 5.333-1.6 5.333-2.533-.133-45.333-10.4-46-11.2-.4-.266 5.867-8.533 13.6-18.4 7.867-9.733 15.2-19.066 16.267-20.666 1.867-2.667 7.067-4.4 7.067-2.267zM328 262.267c0 .4-7.333 9.466-16.4 20.266-33.2 39.467-52.267 65.2-74.8 100.8-6.533 10.267-12.133 18.934-12.267 19.2-1.2 1.467-58.266-16.266-86.533-26.933-50-18.8-92.267-42.667-108.133-60.933l-2.8-3.2 2.8-2.267c5.333-4.267 26.666-14.267 40.4-19.067 44.533-15.466 112.933-25.2 194.4-27.866 20.666-.667 63.333-.667 63.333 0zm62.267 2.266c7.6 1.467 17.6 2.667 20.8 2.534 3.866-.267 3.866-.134 1.466 2.666-1.333 1.6-7.333 8-13.333 14.267-15.733 16.533-35.333 38.667-49.867 56.4l-12.666 15.467-18.134.133H300.4l-.8 13.067c-.933 15.6-2.4 19.866-6.933 21.066-3.2.8-3.334 1.2-3.334 10.8 0 8.8.267 10 2.534 10.667 2.266.533 2.4 1.2 1.2 3.867-.8 1.733-2 3.2-2.667 3.2-2.933 0-58.133-13.067-60-14.134-.533-.4 1.333-4.4 4.133-9.066 23.067-37.6 55.334-81.067 88.667-119.334l12.133-13.866 26.267.933c14.533.533 27.333 1.2 28.667 1.333zm59.2 4.8c34.133 3.467 71.6 8.267 99.2 12.667 29.333 4.667 78.4 14.133 79.733 15.333 1.2 1.067-12.533 17.2-38 44.267l-16 17.067h-8.533c-5.867 0-8.533.533-8.667 1.6 0 .933 0 4.533.134 8.133.133 6-.134 6.667-8.134 14.933-4.533 4.8-8.8 8.667-9.467 8.667-.533 0-1.066-4.533-1.066-10v-10h14.667v-13.333H530.8c-22.4 0-22.667 0-23.067 2.933-.266 1.733-.266 4.667 0 6.667.534 3.333 1.067 3.6 7.467 4l6.8.4.667 17.2.666 17.2-6 5.733c-11.466 10.8-37.333 32.533-38.666 32.533-.8 0-1.734-.933-2.134-2-.666-1.466-3.2-2-10.8-2-6.266 0-9.6.534-9.066 1.334 1.066 1.866-4.134 1.733-7.734-.267-1.6-.8-9.2-1.6-16.933-1.867-15.333-.266-66-7.333-105.067-14.533-34.666-6.4-31.466-5.333-28.666-10 1.466-2.533 3.333-4 5.333-4 2.533 0 3.067-.667 3.067-4v-4h26.666v8H352v-21.333h-7.867l-.4-17.734-.4-17.6 5.334-6.666c9.733-12.267 31.466-37.2 46.533-53.2 8.133-8.8 17.467-18.8 20.667-22.4 3.2-3.467 6-6.4 6.133-6.4s12.533 1.2 27.467 2.666zm355.867 14c58.8 25.334 94.266 53.067 99.866 78 .934 4.4.667 12.134-1.333 30.667-1.333 13.6-2.533 24.933-2.533 25.333 0 .4-1.6-2-3.6-5.333-4.8-8.133-11.334-15.467-22-24.667-5.734-4.933-9.067-8.933-9.067-10.533 0-5.333-5.867-13.2-12-16.533-5.067-2.667-7.333-3.067-14.533-2.534-8.134.667-9.334.267-22.667-6C802.8 344.8 768 330.667 765.6 330.667c-2.533 0-2.933-4.4-2.933-34.134v-29.866l13.067 4.8c7.066 2.533 20.4 7.866 29.6 11.866zM734.4 309.067L734 319.6l-9.733-2.8c-9.333-2.667-9.733-2.933-8.8-6.133.533-1.867 1.333-5.467 1.867-8.134.533-2.533 4.4-9.333 8.8-15.2L734 276.8l.4 10.933c.267 6 .267 15.6 0 21.334zm-69.733-3.867c11.067 2.8 14 3.867 11.733 4.667-4.266 1.333-18.533-1.6-25.6-5.2-8.266-4.267-4.266-4.134 13.867.533zm-632.8 17.733c28.266 26.534 90 55.467 165.2 77.2 13.333 4 24.133 7.467 24 7.867-6.534 13.867-22 43.867-22.8 43.867-.534.133-.667-1.867-.267-4.4.533-2.667.267-4.8-.533-5.467-1.334-.667-25.334-1.333-32.267-.8-1.2 0-2.8 2.267-3.733 5.467-.8 2.933-2 5.333-2.667 5.333-3.867 0-9.867-3.467-11.6-6.8-1.067-2.133-2.4-3.867-2.933-4-.534 0-5.067-.267-10.267-.4-7.733-.4-12-1.6-25.333-7.333-50.8-22-86.4-46.8-98.133-68.534-4-7.333-4.534-9.333-4.4-18.266 0-6.8.8-11.6 2.4-14.934 2.266-4.8 12.266-17.066 13.733-17.066.4 0 4.666 3.733 9.6 8.266zm599.067-2.4c11.466 8 22.666 11.6 39.466 12.667l13.6.8-11.6 13.6c-6.533 7.467-11.866 13.067-12.133 12.267-.267-.667-9.2-1.2-20.267-1.2h-19.866l-.667 4.266c-.4 2.4-1.067 8-1.467 12.4-1.333 13.2-2 15.334-5.466 16.667-2.667 1.067-3.2 2.133-3.2 7.333v6h10L602.667 422c-16.667 16.533-18 17.6-26.667 20.8-2.533.933-6.266 3.467-8.266 5.467-4.267 4.533-7.467 3.733-8-2-.4-4.267-.4-4.267-8.667-4.667l-8.4-.4v9.6l-6.267-.4c-6.133-.4-6.4-.533-6.8-4.8l-.4-4.4-8.267.4c-7.6.4-8.266.667-7.866 3.333.4 3.2-1.6 4.934-4.534 3.867-1.733-.667-1.733-1.2.267-4.133l2.133-3.334h-19.6l5.334-4.4c2.933-2.266 12.266-10.4 20.933-18 9.067-8 16.667-13.6 18.267-13.6 2 0 2.8-.8 2.8-2.933 0-1.867 3.066-5.733 8.4-10.533 4.533-4.267 8.667-7.734 9.333-7.867.534 0 .934 4.8.934 10.667v10.666h17.2l6.4-11.733 6.4-11.6.4 11.6.4 11.733h17.2v-46.666h-9.2c-6.267 0-9.467.533-9.734 1.6-.8 3.2-11.066 21.066-12 21.066-.666 0-1.066-3.466-1.066-7.733 0-7.2.4-8.133 4.8-12.4 2.666-2.4 13.466-14 24.133-25.6 10.667-11.467 19.6-20.933 19.733-20.933.267 0 4.267 2.666 8.934 5.866zm93.733 1.067c8.667 2.533 9.867 3.333 10.267 6.267.4 3.333.666 3.466 13.066 4.266 11.467.667 14.534 1.6 32.667 8.8 16.933 6.8 42.8 18.4 44.533 19.867.267.267-1.066 2.267-2.933 4.533-10.4 12.267-6.933 31.334 7.067 38.267 6.8 3.6 17.733 4.133 24.4 1.2 4.133-1.733 11.6-9.067 11.6-11.467 0-.666-3.334-1.6-7.334-2-5.733-.8-7.733-.533-9.333 1.2-2.8 2.8-8.4 2.8-11.6-.133-5.467-4.933-3.333-5.733 14.667-5.733h16.933l7.733 7.2c4.134 4 7.6 7.866 7.6 8.533 0 3.867-28.533 17.6-36.666 17.6-3.067 0-4.667.667-4.667 1.867 0 1.733-2.667 3.466-5.333 3.466-.534 0-1.334-1.2-1.734-2.666-.533-2-1.866-2.667-5.6-2.667-4.933 0-5.066.133-4.266 4.4l.666 4.533-11.466 2.8c-32.934 8.4-43.734 9.867-69.2 9.734l-24.4-.267v3.467c0 2.8-.667 3.333-4 3.333-2.134 0-6-1.467-8.667-3.2-9.6-6.533-26-5.6-34.133 2-2.267 2.133-5.6 3.867-7.334 3.867-2.8 0-3.2-.667-3.2-4.667v-4.8l-19.6.4-19.733.4-.4 4.933-.4 5.067H617.2c-4.666 0-6.8-.533-7.333-2-.933-2.4-11.2-8.667-14.267-8.667-1.2 0-2.4-.533-2.8-1.066-.266-.534 10.8-12.534 24.667-26.534l25.2-25.466v17.066H660v-36.666l12.134-14c6.8-7.6 13.733-15.867 15.6-18.4 1.866-2.4 6.133-5.6 9.6-7.067 3.466-1.467 8-4.533 10.133-6.667 4.4-4.666 4.667-4.666 17.2-.933zM324 371.067c0 1.066-9.733 14.4-10.133 13.866-.134-.133.133-3.733.4-7.866l.666-7.734 4.534.4c2.533.134 4.533.667 4.533 1.334zm521.467.533c6.4 3.733 4.933 5.733-4.133 5.733-8 0-8.134 0-6.534-3.066 2.934-5.467 5.067-6 10.667-2.667zm-202.8 4.667c-.133 3.2-1.6 6-5.467 10.4l-5.333 5.866.8-8.533c1.2-11.733 1.333-12 6-12 3.6 0 4 .4 4 4.267zm-316 7.733v6.667H322c-2.533 0-4.667-.4-4.667-.8 0-1.067 8-12.534 8.667-12.534.4 0 .667 2.934.667 6.667zM891.6 411.067c8.134 12 10 27.466 4.534 38-4 7.733-12.134 16.4-20.8 22.266-12.134 8-11.334 8.8-11.334-11.866v-18.134h-18.133l-6.533 12.267-6.667 12.133-.4-12.133-.4-12.267h-17.2v23.2c0 14 .533 23.467 1.333 23.734.667.133 4.8.266 9.067 0l7.6-.534 6.4-11.2c3.6-6.133 6.667-11.2 7.067-11.2.266 0 .533 4.8.533 10.534v10.666L829.734 492c-54 17.6-129.2 26.667-222.8 26.667-39.067 0-100.134-2.134-101.601-3.467-.266-.4 1.467-2.267 4-4.267 2.534-2 10.934-8.8 18.667-15.333 9.6-8 14.133-11.067 14.4-9.6.4 1.467 2.4 2 9.067 2H560v-10c0-5.733.534-10 1.334-10s1.333 1.467 1.333 3.2c0 3.867 4.8 10.933 9.733 14.667 3.2 2.4 5.734 2.8 15.6 2.8 9.867 0 12.4-.4 15.6-2.8 7.067-5.2 9.734-10.8 9.734-20v-8.534H618c4.534 0 4.667.134 4.667 5.334 0 6.933-2.4 11.866-6.267 12.8-2.666.666-3.066 1.6-3.066 6.666V488h7.2c5.066 0 8-.8 10.533-2.667 4.133-3.2 4.933-5.6 6.8-18.666 1.467-10 1.467-10 5.733-10.4l4.267-.4.4 16.266.4 16.267h7.067c3.866 0 7.333-.4 7.733-.8.4-.4.667-7.6.667-16.133 0-12 .4-15.467 1.733-15.467 1.333 0 1.733 2.267 1.733 8.267 0 9.6 2.134 14.933 8.4 20.266 5.334 4.4 8.667 5.2 19.867 4.534 7.467-.4 10-1.2 14.133-4.267 6.934-5.333 9.067-11.2 8.4-23.067-.533-7.6-.266-9.733 1.2-9.733 1.334 0 1.734 3.733 1.734 17.867 0 10.533.533 18.133 1.333 18.4.667.133 4.667.133 8.667 0l7.333-.534v-33.066h9.867c9.733 0 10 0 10.4-3.6.266-1.867 1.2-3.734 2.133-4.134 1.2-.4 1.6 4.267 1.6 20.267V488h18l4.933-9.067c8.8-16 8.934-16 9.067-2.666V488h16v-46.667l-6.933-.133c-6.667 0-6.267-.267 8.266-4 11.867-2.933 17.067-3.733 22.8-3.067 8.534.8 15.067-1.6 16.534-6.133.533-1.6 5.333-4.667 13.2-8.4 6.8-3.333 14.8-7.467 17.6-9.467 2.8-1.866 5.466-3.466 5.866-3.466.4 0 2 2 3.6 4.4zm-640.133 3.6c12.4 2.933 25.6 6.133 29.466 7.066l6.934 1.6-5.467 8.134c-4.8 7.466-5.867 8.4-10.933 9.066-5.334.8-5.734 1.2-12.134 12.934l-6.666 12-.4-12.134-.4-12-10.934-.133c-26.666-.4-23.6-1.467-32.8 11.6-2.933 4.267-4.8 5.867-5.2 4.667-.933-2.667 22.134-48.134 24.4-48.134.934 0 11.867 2.4 24.134 5.334zM308.8 427.2c13.867 2.8 66 11.733 77.2 13.2 2.267.267-.667.667-6.267.8l-10.4.133v13.334H384v33.066l7.067.534c3.733.266 7.733.266 8.666 0 1.2-.4 1.6-5.067 1.6-17.2v-16.534l5.067.4 4.933.4-.4 7.6c-.666 9.334 3.2 18.534 9.2 22C422.267 486.267 424 487.6 424 488c0 .4-5.6 4.4-12.4 8.933l-12.267 8.267-22-3.333c-38.533-5.6-91.066-15.067-92.666-16.667-.267-.4-.667-10.933-.667-23.6l-.267-23.067 4.4-7.333c2.4-3.867 4.534-7.2 4.667-7.2s7.333 1.467 16 3.2zM793.334 442c0 .667-11.867 22.133-12.8 23.2-.267.267-.534-4.267-.534-10.267v-10.8l5.734-1.2c7.333-1.733 7.6-1.733 7.6-.933zm-612.001 8.667c0 7.066-.266 8-2.666 8-1.467 0-2.667-.8-2.667-1.734 0-2.266 4-14.266 4.8-14.266.267 0 .533 3.6.533 8zm308.534-6c-.534 1.066-1.467 2-2.134 2-.8 0-.666-.8.267-2 .933-1.067 1.867-2 2.133-2 .267 0 .134.933-.266 2zm-255.2 14.133v14.8l-4.267-.8c-3.867-.667-10.4-6.4-10.4-9.067 0-.933 13.6-19.466 14.4-19.6.133-.133.267 6.534.267 14.667zM418.4 445.6c-.267.8-1.333 1.867-2.133 2.133-.934.267-1.334-.266-.8-1.6.933-2.4 3.733-2.933 2.933-.533zm44.933 7.2c2 3.067 2 3.733.4 5.467-1.733 1.6-2.266 1.2-4.133-3.6-1.6-4.134-1.733-5.334-.267-5.334.934 0 2.667 1.6 4 3.467zm21.2.667c-.4.666-1.333.933-2 .4-.666-.4-.933-1.334-.4-2 .4-.667 1.334-.934 2-.4.667.4.934 1.333.4 2zm-43.466.666C446.533 458 444.8 460 436 460c-4.4 0-8-.4-8-.933 0-1.867 5.867-7.067 8-7.067 1.067 0 3.467.933 5.067 2.133zm71.6 16.934V488l6 .267c3.333 0 6.8.133 7.733.133 2.4-.133 2 .667-2.667 4.8-12 10.533-27.2 21.467-29.6 21.467-12.4 0-86.133-8.267-85.333-9.467.267-.667 5.467-4.4 11.333-8.533 9.6-6.534 11.467-7.334 17.6-7.334 8.4 0 17.6-4.266 20.267-9.333 2.133-4 1.467-5.333-2.267-5.333-3.733 0-2.8-2.8 1.6-4.4 2.267-.8 4-2.267 4-3.067 0-2.4 6.667-6.4 8.267-4.8.8.8-1.333 5.467-6.133 13.067l-7.334 11.866 6.267.667c11.067 1.2 12.933.4 16.933-6.8 1.867-3.6 3.734-6.533 4-6.533.267 0 2.134 2.933 4.267 6.666 4 7.2 2.8 6.667 17.733 7.067 5.867.133 5.734-.533-2.8-13.867l-6.666-10.4 3.6-5.466c3.333-4.934 4.133-5.467 8.4-5.067l4.8.4v17.067zm30-14.267c0 1.6-1.334 1.867-6.267 1.6-8.8-.533-9.333-3.733-.533-3.733 5.2 0 6.8.533 6.8 2.133zm155.6-.133c4 2.8 5.067 8.8 2.4 13.866-1.733 3.6-2.8 4.134-7.333 4.134-3.867 0-5.734-.8-7.2-2.934-3.067-4.4-2.667-10 1.2-13.733 3.733-3.867 6.8-4.133 10.933-1.333zm-540.934 1.2c0 1.066-.533 2.4-1.333 2.8-.667.4-1.333.533-1.333.133 0-.267-.4-1.467-.8-2.667-.534-1.466-.134-2.133 1.333-2.133 1.2 0 2.133.8 2.133 1.867zm405.334 0c0 1.066-.533 2.4-1.333 2.8-.667.4-1.334-.4-1.334-1.867 0-1.6.667-2.8 1.334-2.8.8 0 1.333.8 1.333 1.867zm33.067 1.866c3.866 4.934.266 14.534-5.734 15.067-5.466.4-7.333-.267-9.466-3.467-2.934-4.533-1.467-12.4 2.533-14 3.867-1.6 10.533-.266 12.667 2.4zM114.8 471.6c-1.333 4.8-7.2 8.267-10.4 6.267-5.6-3.467-.4-9.867 7.867-9.867 3.2 0 3.466.4 2.533 3.6zm151.867 3.067c0 5.6-.4 6.666-2.4 6.666-1.334 0-2.8-.4-3.334-.8-.666-.666 4.267-12.533 5.334-12.533.266 0 .4 2.933.4 6.667zm-55.334 5.066l5.334 8.267h16.4c8.933 0 16.266.4 16.266 1.067 0 .533-2.933 7.866-6.533 16.266-9.733 23.2-14.933 41.467-16.933 60.8l-.8 8.134-5.867-1.067c-18.667-3.467-31.2-17.6-33.733-38.133-1.067-8.4 0-27.067 1.866-33.734.267-1.066 1.2-4.533 2-7.6 1.2-4.666 2-5.6 5.067-6 3.467-.4 3.6-.666 3.467-8.4-.134-4.4 0-8.4.266-8.933.267-.4 2.134-.4 4.267.133 2.4.667 5.2 3.467 8.933 9.2zM443.467 474c-3.6 2.933-6 4-8.267 3.6-3.467-.667-7.6-5.333-6.4-7.2.4-.667 5.067-1.067 10.267-.933l9.466.266-5.066 4.267zm99.2.933c-.134 2-2.4 4.8-6.667 8.134l-6.667 5.066V472H536c6 0 6.667.267 6.667 2.933zm-308 6.667c0 1.6-.134 2.533-.4 2.267-.134-.267-1.2-1.6-2.134-2.934-1.6-1.866-1.466-2.266.4-2.266 1.334 0 2.134 1.066 2.134 2.933zM272 487.867c4 .8 14.8 2.933 24 4.8 20.8 4.266 65.733 12 83.067 14.133 7.066.933 12.933 2 12.933 2.533 0 .934-19.067 12.934-36.667 23.067-17.866 10.267-51.066 25.733-67.733 31.467-18.4 6.4-38.8 10.8-50 10.8h-8l.667-6.4c1.733-19.467 8.266-41.734 19.466-67.334C257.6 483.2 254.8 484.8 272 487.867zm164 26a2564.24 2564.24 0 0037.333 3.866l17.867 1.6-20.533 14.8c-74.534 53.467-139.6 84.4-184.934 88-12.533.934-27.333-1.733-35.6-6.666-4.8-2.8-34.266-32.534-37.2-37.6-.8-1.334-.133-1.467 3.334-.4 6.666 1.866 31.6 1.466 43.066-.8 32.267-6.134 86.134-30.667 128-58.267l12-7.867 8.667.534c4.8.4 17.333 1.6 28 2.8z" fill="#fff"/><path d="M370 358.4c-6 2.133-11.2 6.267-14 11.333-4.133 7.2-3.333 21.334 1.467 27.467 6.667 8.4 19.6 11.6 32.133 7.867 5.2-1.467 11.734-7.734 11.734-11.067s-13.334-4.533-16-1.333c-3.467 4.133-14.667.533-14.667-4.667 0-.8 6.533-1.333 16.8-1.333H404.4l-.8-7.467c-.933-8.533-2.933-12.267-9.6-17.2-3.6-2.933-6.4-3.733-12.933-4.133-4.667-.267-9.6 0-11.067.533zm14 13.6c4.267 4.267 3.2 5.333-5.333 5.333-4.4 0-8-.533-8-1.333 0-2.267 5.2-6.667 8-6.667 1.467 0 3.867 1.2 5.333 2.667zm34.933-11.867C410.267 364.4 406 371.733 406 382c0 15.333 9.867 24.533 26.533 24.667 9.067 0 16.4-3.467 20-9.467l2.267-3.733-5.333-2.8c-6.667-3.334-7.467-3.334-10.8 0-3.467 3.466-8 3.333-12.534-.134-3.066-2.4-3.6-3.6-3.2-8.933.267-4.667 1.2-6.533 4-8.667 4-3.066 9.2-2.4 12.667 1.734 2.133 2.4 2.267 2.4 8.667-.8 7.066-3.6 7.2-4.934.8-10.8-6.934-6.4-20.4-7.734-30.134-2.934zm48.267.4c-6.534 2.934-9.867 8.134-9.867 15.734 0 5.6.667 7.2 4 10.666 2.267 2.134 4 4.267 4 4.534 0 .4-1.733 3.333-4 6.533-2.133 3.2-4 6.133-4 6.533 0 .4 3.733.8 8.4.8H474l3.733-6c3.067-4.933 4.533-6 7.733-6 3.734 0 3.867.267 3.867 5.867v5.867l6.8.533c3.733.133 7.067.133 7.333-.133.267-.267.534-10.934.534-23.734v-23.066h-16.267c-10.667.133-17.867.666-20.533 1.866zm22.133 16c0 5.734-1.333 6.667-8.667 5.6-6-.933-8.133-3.733-5.733-8 .8-1.466 3.067-2.133 7.733-2.133h6.667v4.533zM680 358.267c-7.6 2.8-11.067 5.333-14.133 10.666-3.067 5.067-3.467 6.934-2.934 14.8.4 7.2 1.2 10 3.734 13.334 7.6 9.6 23.066 12.533 34.666 6.533 5.6-2.8 10.934-9.2 9.2-10.933-.533-.4-3.733-1.067-7.333-1.467-5.2-.667-7.067-.4-8.4 1.333-.933 1.2-3.467 2.134-5.6 2.134-3.733 0-9.2-4-9.2-6.667 0-.8 6.4-1.333 16.667-1.333h16.666V381.6c0-5.733-3.733-14.533-7.466-17.867-5.867-5.2-18.934-8-25.867-5.466zM693.333 372c4.267 4.267 3.2 5.333-5.333 5.333-8.8 0-10.533-2-5.067-5.866 4-2.8 7.2-2.667 10.4.533zM716 365.2v6.667l7.067.4 6.933.4.4 16.266.4 16.4h15.867V372h14.666v-13.333H716v6.533zm49.334 16.8v23.333h17.2l6.4-11.333c6.267-10.933 8.8-13.733 8.267-9.067-.134 1.334-.134 6.4 0 11.334l.133 9.066h16v-46.666h-17.2l-5.333 9.6c-9.334 16.933-9.334 16.933-9.467 2.666v-12.266h-16V382zM304 441.067c-.8.266-1.333 9.6-1.333 23.733V488h17.2l6.267-11.333c3.466-6.267 6.8-11.334 7.333-11.334.533 0 .933 3.467.933 7.6.134 16.667-.8 15.067 8.667 15.067h8.267v-46.667h-7.6c-4.267 0-8.134-.133-8.667-.266-.667-.134-4 4.933-7.733 11.333-3.6 6.267-7.067 11.6-7.6 11.6-.534 0-.8-5.067-.667-11.2l.267-11.2-7.067-.533c-3.867-.267-7.6-.267-8.267 0zm-238 0c-.4.4-.667 4.266-.667 8.533v7.733H52v-16H36.133l-.4 19.6C35.2 489.733 34.667 488 44 488h7.867l.4-8.4.4-8.267h12l.4 8.267.4 8.4h7.866c9.334 0 8.267 3.2 8.267-26.533-.133-10.534-.4-19.467-.8-19.867-.933-.933-13.867-1.467-14.8-.533z" fill="#fff"/></svg>